<svg width="128" height="117" viewBox="0 0 128 117" fill="none" xmlns="http://www.w3.org/2000/svg">
<path d="M84.174 90.8855H96V92.2633H83.1657C83.0434 93.1208 82.6458 93.7329 81.974 94.1001H87.291C86.9853 94.345 86.5577 94.4676 86.0075 94.4676H70.0564C69.445 94.4676 68.9866 94.345 68.6813 94.1001H63.4559C62.7834 93.7329 62.386 93.1208 62.2641 92.2633H75.0985V90.8855H63.2725V89.0487H61.6224V87.6709H74.6401V86.2932H57.772V85.8341H59.0556V84.4563H69.598V83.997H60.9806V83.5379H68.4979V82.6192H67.4896V81.2417H69.6896V80.7824H70.6982V78.9455H70.9732V78.4862H71.6149V76.6493H73.9068V76.19H69.873V76.0063C69.873 75.4553 70.0867 74.9041 70.5148 74.3532H73.54C74.0286 73.802 74.6401 73.5264 75.3734 73.5264H91.3248C92.1189 73.5264 92.73 73.802 93.1582 74.3532H90.2246C90.5912 74.7816 90.7746 75.3325 90.7746 76.0063V76.19H94.8083V76.6493H92.5165V78.4862H91.8747V78.9455H91.5997V80.7824H90.5912V81.2417H88.3912V82.6192H89.3995V83.5379H81.8822V83.997H90.4996V84.4563H79.9571V85.8341H78.6736V86.2932H95.5417V87.6709H82.524V89.0487H84.174V90.8855Z" fill="white"/>
<path d="M109.886 107.405H105.628V109.162H106.789V110.04H107.047V111.797H107.951V112.237H108.725V113.115H110.66V114.433C110.66 114.608 110.617 114.755 110.531 114.872C110.359 115.751 109.671 116.336 108.467 116.629H107.306C106.789 116.746 106.36 116.805 106.015 116.805H27.9592C27.6153 116.805 27.185 116.746 26.6689 116.629H27.8301C26.6264 116.336 25.895 115.751 25.637 114.872V113.115H23.7017V112.237H22.9276V111.797H22.0244V110.04H21.7664V109.162H20.6052V107.405H24.8629V106.966H25.895V106.087H20.4762V105.648H22.6695V104.33H22.1534V102.573H22.2825V101.958C22.2825 101.666 22.3257 101.431 22.4115 101.256H21.6374C22.2399 100.143 23.3579 99.5864 24.9919 99.5864H103.048C104.854 99.5864 105.973 100.143 106.402 101.256H107.047C107.134 101.373 107.176 101.49 107.176 101.607C107.263 101.724 107.306 101.841 107.306 101.958V102.573H107.176V104.33H107.693V105.648H105.499V106.087H110.918V106.966H109.886V107.405Z" fill="white"/>
<path d="M124.7 15.8402L124.642 16.4266L127.748 15.4333L127.69 16.0196L124.317 17.0981L124.199 18.2708L125.087 17.987L124.97 19.1597L124.26 19.3867L124.084 21.1457L123.729 21.2593L123.553 23.0183L122.399 23.3873L122.164 25.7327L125.449 24.6826L125.332 25.8552L123.29 26.5081L123.114 28.2671L122.493 28.4657L122.169 30.8395L122.702 30.6691L122.437 32.4566L123.148 32.2295L123.089 32.8158L121.58 33.2983L121.521 33.8846L124.806 32.8345L124.689 34.0072L122.558 34.6885L122.324 37.0338L123.123 36.7783L122.888 39.1238L123.332 38.9819L123.156 40.7409L120.138 41.7058L119.932 42.907L121.53 42.396L121.354 44.155L118.158 45.1767L117.924 47.5222L122.274 46.1316L122.098 47.8906L120.855 48.2879L120.532 50.6617L120.798 50.5765L120.622 52.3355L120.533 52.364L120.327 53.5649L120.416 53.5366L120.24 55.2956L120.093 55.9104L120.448 55.7968L120.331 56.9694L121.929 56.4587L121.694 58.8041L118.676 59.769L118.442 62.1143L119.063 61.9157L118.74 64.2895L124.51 62.4446L124.304 63.6458L125.192 63.3619L124.957 65.7073L119.453 67.467L119.336 68.6396L117.383 69.264L117.266 70.4367L118.331 70.0961L118.097 72.4415L118.541 72.2996L118.423 73.4722L118.157 73.5574L117.981 75.3164L118.336 75.203L118.013 77.5768L118.191 77.5198L118.132 78.1062L115.469 78.9576L115.352 80.1303L115.263 80.1588L115.028 82.5041L118.668 81.3406L118.404 83.1281L117.604 83.3834L117.546 83.9697L117.013 84.1399L116.779 86.4855L116.69 86.5137L116.573 87.6864L116.75 87.6297L116.427 90.0035L117.404 89.6912L117.345 90.2775L117.256 90.306L117.08 92.065L116.015 92.4055L115.957 92.9919L114.092 93.588L113.975 94.7607L113.354 94.9593L113.236 96.132L114.213 95.8199L114.065 96.4345L117.261 95.4128L117.144 96.5855L115.102 97.2383L114.926 98.9974L115.37 98.8554L115.353 99.2015L115.106 100.643L115.017 100.671C114.875 101.171 114.659 101.618 114.367 102.014L117.652 100.964C117.36 101.36 117.104 101.631 116.883 101.778L114.22 102.629C113.853 102.973 113.344 103.249 112.693 103.457L101.064 107.175C100.709 107.289 100.359 107.287 100.016 107.17L102.679 106.318C102.545 106.286 102.327 106.166 102.027 105.959L98.7427 107.009C98.4107 106.661 98.2132 106.346 98.1497 106.063L98.0546 105.64C97.9913 105.357 97.979 105.021 98.018 104.63L98.0593 104.39L97.5267 104.56L97.7025 102.801L99.7443 102.148L99.9502 100.947L96.7544 101.969L96.813 101.382L95.9254 101.666L96.0426 100.493L96.5752 100.323L96.6924 99.1504L98.6455 98.526L98.7041 97.9397L99.6806 97.6276L99.8564 95.8686L99.9451 95.8401L100.004 95.2538L99.1159 95.5376L99.3506 93.1923L99.173 93.249L99.2902 92.0763L99.3789 92.0479L99.6133 89.7025L100.146 89.5321L100.205 88.9458L101.092 88.6622L101.268 86.903L97.6285 88.0667L97.863 85.7212L97.9516 85.6929L98.0691 84.5203L100.732 83.6688L100.791 83.0825L100.613 83.1392L100.936 80.7654L100.581 80.879L100.757 79.12L101.024 79.0348L101.141 77.8622L100.608 78.0323L100.931 75.6587L99.866 75.9993L99.9832 74.8266L101.936 74.2022L102.054 73.0294L107.469 71.2984L107.703 68.9528L106.904 69.2084L107.021 68.0357L101.34 69.8519L101.574 67.5066L100.953 67.7052L101.276 65.3314L104.206 64.3949L104.44 62.0496L102.842 62.5603L102.96 61.3876L102.693 61.4728L103.045 57.9548L103.134 57.9263L103.309 56.1673L103.043 56.2525L103.366 53.8787L104.609 53.4815L104.785 51.7225L100.435 53.1131L100.67 50.7675L103.777 49.7744L104.041 47.9869L102.443 48.4978L102.561 47.3252L105.668 46.3318L105.844 44.5728L105.311 44.7429L105.634 42.3694L104.746 42.6532L105.07 40.2794L107.2 39.5983L107.317 38.4256L104.033 39.4755L104.091 38.8892L105.512 38.4352L105.57 37.8488L104.949 38.0475L105.125 36.2885L104.681 36.4304L104.915 34.085L105.537 33.8862L105.713 32.1272L107.754 31.4746L107.96 30.2734L104.587 31.3518L104.821 29.0064L105.975 28.6376L106.151 26.8786L106.506 26.765L106.682 25.006L107.392 24.7789L107.51 23.6062L106.622 23.89L106.739 22.7174L110.113 21.6389L110.171 21.0526L107.064 22.0459L107.123 21.4595L103.394 22.6515L103.511 21.4788L105.997 20.6842L106.32 18.3104L108.717 17.5441L108.776 16.9578L106.645 17.6389L106.88 15.2935L104.749 15.9747L104.808 15.3883L107.648 14.4802L107.766 13.3075L106.434 13.7332L106.551 12.5605L105.042 13.0429L105.218 11.2839L107.437 10.5744L107.537 9.74784C107.608 9.49827 107.649 9.25804 107.661 9.0272C107.716 8.707 107.808 8.41248 107.938 8.14387L106.606 8.56958C106.791 7.9808 107.111 7.42458 107.564 6.90127C108.017 6.37792 108.628 5.99338 109.398 5.74733L121.294 1.94436C122.3 1.62282 123.086 2.01484 123.651 3.12059L124.894 2.72325C124.985 2.84561 125.054 3.01264 125.102 3.22446C125.165 3.50691 125.177 3.84367 125.138 4.23449L125.015 4.95513L122.884 5.63624L122.62 7.42365L124.217 6.91281L124.012 8.11388L125.343 7.68819L125.226 8.86088L122.385 9.76903L122.327 10.3554L124.457 9.67425L124.223 12.0196L126.353 11.3385L126.295 11.9249L123.898 12.6911L123.574 15.0649L121.089 15.8595L120.972 17.0322L124.7 15.8402Z" fill="white"/>
<path d="M37.5107 93.8212L37.7451 96.1665L29.1339 93.4137L29.3097 95.1727L30.3751 95.5132L30.4337 96.0996L30.7887 96.2132L30.9645 97.9722L31.1421 98.0289L31.3765 100.374L31.4654 100.403L31.7885 102.777L28.5927 101.755L28.6513 102.341L32.4686 103.562L32.5685 104.388C32.6077 104.779 32.5954 105.116 32.5319 105.398L32.3481 105.793L25.6898 103.665C25.413 104.333 24.9981 104.768 24.4453 104.97L23.2912 104.601C23.0069 104.737 22.6577 104.739 22.2435 104.606L10.614 100.889C10.0222 100.699 9.51321 100.423 9.08737 100.06L10.2414 100.429C9.85882 100.155 9.55934 99.7948 9.34274 99.3469C9.16938 98.989 8.99601 98.6306 8.82265 98.2725L15.4809 100.401C15.3392 99.9018 15.257 99.4214 15.2336 98.9598L15.0689 97.9989L11.3402 96.8069L11.2816 96.2206L14.3888 97.214L14.1544 94.8686L14.0655 94.8401L13.7424 92.4663L13.6535 92.4381L13.4776 90.6791L13.0338 90.5372L12.9752 89.9508L11.91 89.6103L11.7342 87.8513L20.3451 90.6041L20.1107 88.2586L9.10275 84.7394L9.04414 84.1531L22.8041 88.5522L22.7455 87.9658L15.6436 85.6955L15.5264 84.5226L12.952 83.6996L12.7762 81.9406L12.8648 81.969L12.689 80.21L15.5297 81.1182L15.3539 79.359L12.2469 78.3658L12.0994 77.751L11.123 77.4389L11.0644 76.8526L12.6623 77.3633L12.6037 76.777L11.8046 76.5216L11.5702 74.1763L11.6591 74.2045L11.5116 73.59L11.6892 73.6467L11.5134 71.8877L11.3072 70.6865L10.4197 70.4027L10.3023 69.23L11.7228 69.684L11.547 67.925L9.77147 67.3576L9.62396 66.7428L10.778 67.1118L10.5436 64.7662L10.6325 64.7947L10.4264 63.5936L12.3795 64.2179L12.3209 63.6316L10.723 63.1209L10.6058 61.9482L11.4935 62.2318L11.3761 61.0592L11.6426 61.1444L11.584 60.558L7.94424 59.3945L7.79672 58.7797L2.91417 57.2189L2.85555 56.6325L7.02795 57.9665L6.70484 55.5926L12.2975 57.3806L12.0631 55.0352L10.5538 54.5528L10.2893 52.7653L3.18732 50.4949L3.12872 49.9086L12.7164 52.9735L12.3931 50.5999L1.82897 47.2227L1.71174 46.0498L2.15562 46.1917L2.03839 45.0191L3.45878 45.4733L3.13556 43.0995L0.205987 42.1628L0 40.9619L11.8071 44.7363L11.5423 42.9489L3.02004 40.2245L2.75543 38.437L9.4136 40.5655L9.23779 38.8065L7.55094 38.2673L7.49233 37.681L12.5524 39.2987L12.318 36.9532L11.0753 36.5559L10.9581 35.3832L16.5507 37.1712L16.4335 35.9985L8.79903 33.5577L8.4757 31.1841L5.01351 30.0773L4.83767 28.3183L16.0233 31.8941L15.9647 31.3078L14.5443 30.8536L14.4857 30.2673L10.3132 28.9336L10.1374 27.1743L8.09554 26.5217L7.86112 24.1764L12.6549 25.7089L12.4205 23.3634L3.3655 20.4687L3.24827 19.296L5.73395 20.0906L5.55814 18.3316L2.89488 17.4802L2.63026 15.6928L5.38228 16.5726L5.11766 14.7852L8.31347 15.8068L7.90324 11.7024L6.39399 11.22L6.07088 8.84621L3.40761 7.9948L3.34901 7.40847L4.0592 7.63551L3.76615 4.70379L3.5886 4.64702L3.40639 3.34003C3.36731 2.94914 3.37949 2.61247 3.44291 2.33002C3.58564 1.69452 3.88212 1.2217 4.33237 0.911549C4.85766 0.549712 5.38662 0.453936 5.91935 0.624218L17.8151 4.42717C18.7619 4.72988 19.4462 5.21352 19.8678 5.87808C20.3487 6.56155 20.6736 7.23303 20.8427 7.89253C20.9568 8.23174 21.0119 8.55202 21.0076 8.8534L21.1661 10.2663L21.3434 10.3231L21.6365 13.2548L20.9263 13.0277L21.0738 13.6425L23.7369 14.4939L23.9715 16.8392L25.4806 17.3217L25.8908 21.4261L22.6949 20.4044L22.9597 22.1918L20.2077 21.3121L20.4722 23.0996L23.1355 23.9508L23.3113 25.7098L20.8256 24.9153L20.9428 26.088L29.9092 28.9545L30.2323 31.3281L25.4385 29.7955L25.6729 32.141L27.7147 32.7937L27.8905 34.5527L31.9742 35.8581L32.0328 36.4445L33.4533 36.8987L33.5119 37.485L22.415 33.9374L22.5909 35.6964L26.053 36.8032L26.2875 39.1488L34.0109 41.6178L34.1281 42.7905L28.5354 41.0026L28.6526 42.1752L29.8067 42.5443L30.0411 44.8896L24.981 43.2718L25.0396 43.8582L26.7262 44.3974L26.902 46.1566L20.3329 44.0564L20.5087 45.8154L29.1197 48.5682L29.2957 50.3272L17.5773 46.5812L17.6945 47.7539L20.6241 48.6903L20.9475 51.0641L19.5269 50.6099L19.6441 51.7826L19.2002 51.6409L19.3177 52.8136L29.8818 56.1908L30.1162 58.5361L20.6172 55.4995L20.6758 56.0858L27.778 58.3562L27.9538 60.1152L29.4628 60.5976L29.7862 62.9714L24.1933 61.1835L24.4277 63.5289L20.344 62.2234L20.4029 62.8097L25.2854 64.3705L25.344 64.9569L28.9837 66.1206L29.0423 66.707L28.7761 66.6218L28.8933 67.7945L28.0942 67.5391L28.2114 68.7118L29.8093 69.2225L29.8682 69.8088L27.915 69.1844L28.0322 70.3573L27.9436 70.3289L28.178 72.6742L27.1126 72.3337L27.1712 72.92L28.9467 73.4876L29.1226 75.2466L27.7022 74.7927L27.9081 75.9936L28.7959 76.2774L29.0889 79.2091L29.0002 79.1808L29.0588 79.7672L28.9701 79.7387L29.2046 82.084L30.0034 82.3396L30.062 82.9259L28.4641 82.415L28.5227 83.0013L29.5881 83.3419L29.6467 83.9282L32.7539 84.9216L32.9297 86.6806L30.0888 85.7724L30.2646 87.5314L30.0872 87.4747L30.3517 89.2622L32.8374 90.0567L33.0433 91.2579L40.0566 93.5L40.1152 94.0863L26.4439 89.7157L26.5025 90.3021L37.5107 93.8212Z" fill="white"/>
</svg>
