<svg width="1478" height="250" viewBox="0 0 1478 250" fill="none" xmlns="http://www.w3.org/2000/svg">
<path d="M404.055 114.834V37.0215C404.055 35.6048 404.576 34.3757 405.617 33.334C406.659 32.2923 407.888 31.7715 409.305 31.7715C410.722 31.7715 411.951 32.2923 412.992 33.334C414.034 34.3757 414.555 35.6048 414.555 37.0215V104.334H451.68C453.138 104.334 454.388 104.855 455.43 105.896C456.513 106.896 457.055 108.126 457.055 109.584C457.055 111.042 456.513 112.292 455.43 113.334C454.388 114.334 453.138 114.834 451.68 114.834H404.055ZM497.055 76.959H517.617C518.742 76.959 520.367 77.209 522.492 77.709L522.367 70.2715C522.367 68.8132 521.847 67.584 520.805 66.584C519.805 65.5423 518.576 65.0215 517.117 65.0215H497.18C495.763 65.0215 494.534 64.5007 493.492 63.459C492.451 62.4173 491.93 61.1882 491.93 59.7715C491.93 58.3132 492.43 57.084 493.43 56.084C494.472 55.0423 495.722 54.5215 497.18 54.5215H517.117C521.451 54.5215 525.138 56.0423 528.18 59.084C531.263 62.1257 532.867 65.8548 532.992 70.2715L534.305 109.584C534.305 111.042 533.784 112.292 532.742 113.334C531.701 114.334 530.472 114.834 529.055 114.834C527.555 114.834 526.284 114.334 525.242 113.334C524.201 112.292 523.68 111.042 523.68 109.584L514.805 114.834H497.055C492.638 114.834 488.888 113.292 485.805 110.209C482.722 107.126 481.18 103.376 481.18 98.959V92.834C481.18 88.459 482.722 84.73 485.805 81.646C488.93 78.5215 492.68 76.959 497.055 76.959ZM523.305 97.396L522.992 92.959C522.951 91.459 522.43 90.209 521.43 89.209C520.43 88.209 519.201 87.709 517.742 87.709H497.055C495.597 87.709 494.347 88.23 493.305 89.272C492.305 90.272 491.805 91.501 491.805 92.959V98.834C491.805 100.251 492.326 101.48 493.367 102.522C494.409 103.563 495.638 104.084 497.055 104.084H511.867L523.305 97.396Z" fill="black"/>
<path d="M376.352 211.428H405.942C408.22 211.428 410.173 212.242 411.801 213.869C413.494 215.432 414.34 217.352 414.34 219.631C414.34 221.91 413.494 223.863 411.801 225.49C410.173 227.053 408.22 227.834 405.942 227.834H375.278C371.371 227.834 367.335 226.597 363.168 224.123C359.002 221.649 356.104 218.882 354.477 215.822L335.532 179.201C332.992 173.928 331.723 168.524 331.723 162.99C331.723 156.87 332.927 151.564 335.336 147.072L354.477 110.842C356.3 107.456 359.132 104.494 362.973 101.955C366.814 99.351 370.525 98.049 374.106 98.049H406.528C408.806 98.049 410.727 98.863 412.289 100.49C413.917 102.118 414.731 104.038 414.731 106.252C414.731 108.531 413.917 110.516 412.289 112.209C410.727 113.837 408.806 114.65 406.528 114.65H375.278C372.673 114.65 370.558 116.18 368.93 119.24L350.766 153.225C349.334 155.894 348.617 159.051 348.617 162.697C348.617 166.538 349.399 169.924 350.961 172.854L368.344 206.252C369.972 209.702 372.641 211.428 376.352 211.428ZM534.848 163.186V197.854C534.848 205.21 531.365 212.014 524.399 218.264C517.498 224.514 510.369 227.639 503.012 227.639H483.774C476.287 227.639 469.125 224.481 462.289 218.166C455.453 211.786 452.035 205.015 452.035 197.854V163.186C452.035 156.024 455.356 149.286 461.996 142.971C468.702 136.591 475.961 133.4 483.774 133.4H503.012C510.369 133.27 517.498 136.33 524.399 142.58C531.365 148.83 534.848 155.699 534.848 163.186ZM468.637 163.869V197.072C468.637 200.067 469.711 202.443 471.86 204.201L478.012 209.475C479.379 210.646 481.3 211.232 483.774 211.232H502.817C505.616 211.232 508.155 210.223 510.434 208.205L515.414 203.811C517.433 202.248 518.442 200.067 518.442 197.268V164.064C518.442 160.809 517.433 158.4 515.414 156.838L509.653 152.248C507.7 150.62 505.421 149.807 502.817 149.807H485.825C482.114 149.807 479.249 150.686 477.231 152.443L471.664 157.229C469.646 158.921 468.637 161.135 468.637 163.869ZM573.129 219.631V141.799C573.129 139.52 573.91 137.567 575.473 135.939C577.101 134.247 579.054 133.4 581.332 133.4C583.611 133.4 585.532 134.214 587.094 135.842C588.722 137.469 589.535 139.455 589.535 141.799V152.053L602.914 140.627C608.448 135.939 613.852 133.596 619.125 133.596H631.137C637.908 133.596 643.702 136.005 648.52 140.822C653.338 145.64 655.746 151.434 655.746 158.205V162.6C655.746 164.943 654.933 166.929 653.305 168.557C651.742 170.184 649.822 170.998 647.543 170.998C645.265 170.998 643.311 170.217 641.684 168.654C640.121 167.027 639.34 165.074 639.34 162.795V158.205C639.34 155.926 638.526 154.006 636.899 152.443C635.336 150.816 633.416 150.002 631.137 150.002H620.492C618.214 150.002 615.675 151.206 612.875 153.615L589.535 173.83V219.631C589.535 221.91 588.722 223.863 587.094 225.49C585.466 227.053 583.546 227.834 581.332 227.834C579.054 227.834 577.101 227.053 575.473 225.49C573.91 223.863 573.129 221.91 573.129 219.631ZM710.825 106.252V144.826L718.051 139.064C722.608 135.288 727.328 133.4 732.211 133.4H747.25C752.784 133.4 757.7 135.288 761.996 139.064L769.809 145.803C771.957 147.691 773.715 150.393 775.082 153.908C776.515 157.424 777.231 160.874 777.231 164.26V197.463C777.231 200.458 776.58 203.615 775.278 206.936C773.976 210.256 772.478 212.697 770.785 214.26L763.657 220.998C761.834 222.756 759.229 224.351 755.844 225.783C752.459 227.15 749.594 227.834 747.25 227.834H733.188C726.352 227.834 718.897 224.025 710.825 216.408V219.631C710.825 221.91 710.011 223.863 708.383 225.49C706.821 227.053 704.9 227.834 702.621 227.834C700.343 227.834 698.39 227.053 696.762 225.49C695.2 223.863 694.418 221.91 694.418 219.631V106.252C694.418 103.973 695.232 102.053 696.86 100.49C698.487 98.863 700.408 98.049 702.621 98.049C704.9 98.049 706.821 98.863 708.383 100.49C710.011 102.053 710.825 103.973 710.825 106.252ZM745.981 150.002H734.653C731.918 150.002 729.835 150.62 728.403 151.857L713.657 164.455C711.769 166.148 710.825 168.687 710.825 172.072V190.627C710.825 193.361 711.899 195.64 714.047 197.463L727.231 208.596C729.119 210.354 731.104 211.232 733.188 211.232H746.567C748.455 211.232 750.082 210.646 751.45 209.475L757.992 203.615C759.75 202.313 760.629 200.458 760.629 198.049V163.479C760.629 160.744 759.75 158.661 757.992 157.229L752.035 152.248C750.213 150.751 748.194 150.002 745.981 150.002ZM897.543 164.455V184.279C897.543 186.493 896.729 188.413 895.102 190.041C893.474 191.669 891.554 192.482 889.34 192.482H831.332V197.268C831.332 200.067 832.537 202.443 834.946 204.396L839.731 208.4C842.335 210.419 844.809 211.428 847.153 211.428H889.34C891.554 211.428 893.474 212.242 895.102 213.869C896.729 215.432 897.543 217.352 897.543 219.631C897.543 221.844 896.697 223.765 895.004 225.393C893.377 227.02 891.489 227.834 889.34 227.834H846.078C843.214 227.834 840.186 227.248 836.996 226.076C833.871 224.839 831.56 223.57 830.063 222.268L822.739 215.822C820.46 213.999 818.539 211.46 816.977 208.205C815.479 204.95 814.731 201.955 814.731 199.221V161.623C814.731 159.475 815.545 156.577 817.172 152.932C818.865 149.286 820.981 146.454 823.52 144.436L830.356 139.064C834.848 135.419 839.828 133.596 845.297 133.596H868.344C874.138 133.596 879.607 136.005 884.75 140.822L890.903 146.682C895.33 150.653 897.543 156.577 897.543 164.455ZM831.528 163.186V175.881H881.332V164.455C881.332 161.395 880.388 159.051 878.5 157.424L873.715 153.225C871.241 151.206 869.028 150.197 867.075 150.197H846.469C843.93 150.197 841.619 151.076 839.535 152.834L834.75 156.838C832.602 158.466 831.528 160.581 831.528 163.186ZM968.637 90.822H977.227C979.507 90.822 981.427 91.636 982.997 93.264C984.617 94.826 985.437 96.747 985.437 99.025V106.057C985.437 108.335 984.617 110.321 982.997 112.014C981.427 113.641 979.507 114.455 977.227 114.455H968.437C966.097 114.455 964.117 113.609 962.487 111.916C960.927 110.223 960.177 108.335 960.237 106.252L960.437 99.025C960.437 96.747 961.217 94.826 962.777 93.264C964.407 91.636 966.357 90.822 968.637 90.822ZM1002.04 227.639H952.035C949.757 227.639 947.804 226.857 946.176 225.295C944.614 223.667 943.832 221.714 943.832 219.436C943.832 217.222 944.614 215.301 946.176 213.674C947.804 212.046 949.757 211.232 952.035 211.232H968.837V150.002H952.231C949.952 150.002 947.999 149.188 946.371 147.561C944.809 145.933 944.028 144.012 944.028 141.799C944.028 139.52 944.809 137.567 946.371 135.939C947.999 134.247 949.952 133.4 952.231 133.4H977.227C979.507 133.4 981.427 134.247 982.997 135.939C984.617 137.567 985.437 139.52 985.437 141.799V211.232H1001.84C1004.12 211.232 1006.07 212.046 1007.7 213.674C1009.4 215.236 1010.24 217.157 1010.24 219.436C1010.24 221.714 1009.43 223.667 1007.8 225.295C1006.17 226.857 1004.25 227.639 1002.04 227.639ZM1122.94 227.834H1073.33C1071.05 227.834 1069.1 227.02 1067.47 225.393C1065.91 223.7 1065.12 221.714 1065.12 219.436C1065.12 217.222 1065.91 215.301 1067.47 213.674C1069.1 212.046 1071.05 211.232 1073.33 211.232H1089.73V114.455H1073.13C1070.85 114.455 1068.9 113.674 1067.27 112.111C1065.71 110.484 1064.93 108.531 1064.93 106.252C1064.93 103.973 1065.71 102.053 1067.27 100.49C1068.9 98.863 1070.85 98.049 1073.13 98.049H1098.13C1100.35 98.049 1102.27 98.863 1103.89 100.49C1105.52 102.118 1106.34 104.038 1106.34 106.252V211.232H1122.94C1125.15 211.232 1127.07 212.046 1128.7 213.674C1130.33 215.301 1131.14 217.222 1131.14 219.436C1131.14 221.714 1130.33 223.7 1128.7 225.393C1127.14 227.02 1125.22 227.834 1122.94 227.834ZM1243.84 227.834H1194.23C1191.95 227.834 1189.99 227.02 1188.37 225.393C1186.8 223.7 1186.02 221.714 1186.02 219.436C1186.02 217.222 1186.8 215.301 1188.37 213.674C1189.99 212.046 1191.95 211.232 1194.23 211.232H1210.63V114.455H1194.03C1191.75 114.455 1189.8 113.674 1188.17 112.111C1186.61 110.484 1185.83 108.531 1185.83 106.252C1185.83 103.973 1186.61 102.053 1188.17 100.49C1189.8 98.863 1191.75 98.049 1194.03 98.049H1219.03C1221.24 98.049 1223.16 98.863 1224.79 100.49C1226.42 102.118 1227.23 104.038 1227.23 106.252V211.232H1243.84C1246.05 211.232 1247.97 212.046 1249.6 213.674C1251.22 215.301 1252.04 217.222 1252.04 219.436C1252.04 221.714 1251.22 223.7 1249.6 225.393C1248.03 227.02 1246.11 227.834 1243.84 227.834ZM1381.14 164.455V184.279C1381.14 186.493 1380.33 188.413 1378.7 190.041C1377.07 191.669 1375.15 192.482 1372.94 192.482H1314.93V197.268C1314.93 200.067 1316.13 202.443 1318.54 204.396L1323.33 208.4C1325.93 210.419 1328.41 211.428 1330.75 211.428H1372.94C1375.15 211.428 1377.07 212.242 1378.7 213.869C1380.33 215.432 1381.14 217.352 1381.14 219.631C1381.14 221.844 1380.29 223.765 1378.6 225.393C1376.97 227.02 1375.09 227.834 1372.94 227.834H1329.68C1326.81 227.834 1323.78 227.248 1320.59 226.076C1317.47 224.839 1315.16 223.57 1313.66 222.268L1306.34 215.822C1304.06 213.999 1302.14 211.46 1300.57 208.205C1299.08 204.95 1298.33 201.955 1298.33 199.221V161.623C1298.33 159.475 1299.14 156.577 1300.77 152.932C1302.46 149.286 1304.58 146.454 1307.12 144.436L1313.95 139.064C1318.44 135.419 1323.43 133.596 1328.89 133.596H1351.94C1357.74 133.596 1363.2 136.005 1368.35 140.822L1374.5 146.682C1378.93 150.653 1381.14 156.577 1381.14 164.455ZM1315.12 163.186V175.881H1364.93V164.455C1364.93 161.395 1363.99 159.051 1362.1 157.424L1357.31 153.225C1354.84 151.206 1352.62 150.197 1350.67 150.197H1330.07C1327.53 150.197 1325.22 151.076 1323.13 152.834L1318.35 156.838C1316.2 158.466 1315.12 160.581 1315.12 163.186ZM1452.23 176.076H1468.84C1471.05 176.076 1472.97 176.89 1474.6 178.518C1476.22 180.08 1477.04 182.001 1477.04 184.279V198.244C1477.04 200.523 1476.22 202.508 1474.6 204.201C1473.03 205.829 1471.11 206.643 1468.84 206.643H1452.04C1449.76 206.643 1447.81 205.829 1446.18 204.201C1444.62 202.574 1443.84 200.653 1443.84 198.439V184.279C1443.84 182.001 1444.65 180.08 1446.28 178.518C1447.9 176.89 1449.89 176.076 1452.23 176.076Z" fill="black"/>
<path d="M180.555 194.137H205.922V197.097H178.392C178.13 198.94 177.277 200.255 175.836 201.045H187.241C186.585 201.571 185.668 201.834 184.488 201.834H150.272C148.961 201.834 147.977 201.571 147.323 201.045H136.114C134.672 200.255 133.819 198.94 133.558 197.097H161.088V194.137H135.721V190.189H132.181V187.229H160.104V184.268H123.922V183.281H126.675V180.321H149.289V179.334H130.805V178.347H146.929V176.373H144.766V173.413H149.486V172.426H151.649V168.479H152.239V167.492H153.615V163.545H158.531V162.558H149.879V162.163C149.879 160.979 150.337 159.795 151.256 158.61H157.745C158.793 157.426 160.104 156.834 161.678 156.834H195.893C197.597 156.834 198.908 157.426 199.826 158.61H193.534C194.32 159.531 194.714 160.715 194.714 162.163V162.558H203.366V163.545H198.45V167.492H197.073V168.479H196.483V172.426H194.32V173.413H189.601V176.373H191.764V178.347H175.639V179.334H194.124V180.321H171.51V183.281H168.757V184.268H204.939V187.229H177.016V190.189H180.555V194.137Z" fill="black"/>
<path d="M235.708 229.635H226.576V233.411H229.066V235.298H229.62V239.074H231.557V240.018H233.217V241.905H237.369V244.737C237.369 245.115 237.277 245.429 237.092 245.681C236.724 247.569 235.247 248.827 232.664 249.456H230.173C229.066 249.708 228.145 249.834 227.406 249.834H59.9737C59.2357 249.834 58.3127 249.708 57.2057 249.456H59.6967C57.1145 248.827 55.5453 247.569 54.9918 245.681V241.905H50.8406V240.018H49.1801V239.074H47.2429V235.298H46.6894V233.411H44.1986V229.635H53.3313V228.691H55.5453V226.803H43.9219V225.86H48.6266V223.028H47.5196V219.252H47.7963V217.931C47.7963 217.301 47.889 216.798 48.0731 216.421H46.4126C47.705 214.03 50.103 212.834 53.608 212.834H221.041C224.915 212.834 227.314 214.03 228.236 216.421H229.62C229.805 216.673 229.897 216.924 229.897 217.176C230.082 217.428 230.173 217.679 230.173 217.931V219.252H229.897V223.028H231.003V225.86H226.299V226.803H237.922V228.691H235.708V229.635Z" fill="black"/>
<path d="M267.485 32.8728L267.36 34.1328L274.024 31.9983L273.899 33.2583L266.663 35.5757L266.411 38.0957L268.315 37.4858L268.064 40.0058L266.541 40.4937L266.163 44.2736L265.402 44.5176L265.025 48.2975L262.549 49.0903L262.046 54.1303L269.092 51.8738L268.84 54.3938L264.461 55.7965L264.083 59.5764L262.75 60.0033L262.057 65.1042L263.2 64.7383L262.632 68.5793L264.155 68.0914L264.03 69.3514L260.793 70.3881L260.667 71.6481L267.712 69.3916L267.461 71.9116L262.891 73.3753L262.388 78.4152L264.102 77.8663L263.599 82.906L264.551 82.601L264.174 86.381L257.699 88.455L257.257 91.036L260.685 89.938L260.308 93.718L253.453 95.913L252.95 100.953L262.281 97.965L261.903 101.745L259.237 102.599L258.544 107.7L259.115 107.517L258.738 111.297L258.548 111.358L258.106 113.939L258.296 113.878L257.919 117.658L257.603 118.979L258.365 118.735L258.113 121.255L261.541 120.157L261.038 125.197L254.564 127.27L254.061 132.31L255.394 131.883L254.7 136.984L267.078 133.02L266.636 135.601L268.54 134.991L268.037 140.031L256.231 143.812L255.979 146.332L251.79 147.674L251.539 150.194L253.824 149.462L253.321 154.502L254.273 154.197L254.022 156.717L253.45 156.9L253.073 160.68L253.835 160.436L253.141 165.537L253.522 165.415L253.397 166.675L247.684 168.505L247.432 171.025L247.242 171.086L246.739 176.126L254.546 173.625L253.979 177.466L252.265 178.015L252.139 179.275L250.997 179.641L250.494 184.681L250.304 184.742L250.052 187.262L250.433 187.14L249.74 192.241L251.834 191.57L251.708 192.83L251.518 192.891L251.141 196.671L248.856 197.403L248.73 198.663L244.731 199.943L244.48 202.463L243.147 202.89L242.895 205.41L244.99 204.739L244.674 206.06L251.529 203.865L251.278 206.385L246.898 207.787L246.521 211.567L247.473 211.263L247.435 212.006L246.905 215.103L246.715 215.164C246.41 216.238 245.946 217.2 245.321 218.05L252.366 215.794C251.741 216.644 251.191 217.228 250.717 217.542L245.005 219.371C244.217 220.111 243.126 220.705 241.73 221.152L216.785 229.141C216.023 229.385 215.273 229.381 214.537 229.129L220.25 227.299C219.961 227.229 219.495 226.971 218.852 226.527L211.806 228.784C211.094 228.036 210.67 227.358 210.534 226.752L210.33 225.841C210.194 225.235 210.168 224.511 210.252 223.671L210.34 223.155L209.198 223.521L209.575 219.741L213.955 218.338L214.396 215.757L207.541 217.953L207.667 216.693L205.763 217.302L206.014 214.782L207.157 214.417L207.408 211.897L211.597 210.555L211.723 209.295L213.818 208.624L214.195 204.844L214.385 204.783L214.511 203.523L212.607 204.133L213.11 199.093L212.729 199.215L212.98 196.695L213.171 196.634L213.674 191.594L214.816 191.228L214.942 189.968L216.846 189.358L217.223 185.578L209.416 188.079L209.919 183.039L210.109 182.978L210.361 180.458L216.074 178.628L216.199 177.368L215.818 177.49L216.512 172.389L215.75 172.633L216.127 168.853L216.699 168.67L216.95 166.15L215.807 166.516L216.501 161.415L214.216 162.147L214.467 159.627L218.656 158.286L218.908 155.766L230.524 152.046L231.027 147.006L229.313 147.554L229.564 145.034L217.377 148.938L217.88 143.898L216.547 144.325L217.24 139.224L223.524 137.211L224.027 132.171L220.6 133.269L220.851 130.749L220.28 130.932L221.034 123.372L221.225 123.311L221.602 119.531L221.031 119.714L221.724 114.613L224.39 113.759L224.767 109.979L215.436 112.968L215.939 107.928L222.604 105.793L223.172 101.952L219.744 103.05L219.995 100.53L226.66 98.395L227.037 94.616L225.895 94.981L226.588 89.881L224.684 90.49L225.377 85.389L229.948 83.926L230.199 81.406L223.153 83.662L223.279 82.402L226.326 81.427L226.452 80.167L225.119 80.593L225.496 76.8135L224.544 77.1184L225.047 72.0785L226.379 71.6516L226.757 67.8716L231.136 66.469L231.578 63.888L224.342 66.2055L224.845 61.1655L227.321 60.3727L227.698 56.5927L228.459 56.3488L228.837 52.5688L230.36 52.081L230.612 49.561L228.707 50.1708L228.959 47.6509L236.195 45.3334L236.321 44.0734L229.656 46.2079L229.781 44.948L221.784 47.5093L222.035 44.9894L227.367 43.2818L228.06 38.1809L233.202 36.5342L233.327 35.2742L228.757 36.7379L229.26 31.698L224.69 33.1616L224.816 31.9016L230.909 29.9501L231.161 27.4301L228.304 28.3449L228.556 25.8249L225.319 26.8617L225.696 23.0818L230.456 21.5571L230.671 19.7809C230.822 19.2446 230.91 18.7284 230.936 18.2323C231.053 17.5443 231.252 16.9114 231.531 16.3342L228.674 17.249C229.07 15.9838 229.755 14.7885 230.728 13.664C231.7 12.5394 233.011 11.713 234.662 11.1843L260.179 3.01222C262.336 2.32122 264.022 3.16362 265.236 5.53972L267.902 4.68592C268.096 4.94882 268.245 5.30772 268.347 5.76302C268.483 6.36992 268.509 7.09362 268.425 7.93342L268.16 9.48192L263.59 10.9456L263.023 14.7865L266.45 13.6888L266.008 16.2698L268.865 15.355L268.613 17.8749L262.52 19.8265L262.394 21.0864L266.964 19.6228L266.461 24.6627L271.031 23.1991L270.906 24.4591L265.764 26.1057L265.071 31.2066L259.739 32.9142L259.488 35.4342L267.485 32.8728Z" fill="black"/>
<path d="M80.4616 200.445L80.9636 205.485L62.4926 199.569L62.8706 203.349L65.1556 204.081L65.2806 205.341L66.0426 205.585L66.4196 209.365L66.8006 209.487L67.3036 214.527L67.4936 214.588L68.1876 219.689L61.3326 217.493L61.4576 218.753L69.6456 221.376L69.8606 223.152C69.9446 223.992 69.9176 224.716 69.7816 225.322L69.3876 226.172L55.1055 221.598C54.5115 223.033 53.6217 223.968 52.4359 224.402L49.9604 223.609C49.3506 223.902 48.6013 223.906 47.7127 223.621L22.7672 215.632C21.4977 215.225 20.4062 214.632 19.4926 213.851L21.9681 214.644C21.1476 214.056 20.5048 213.282 20.0402 212.319C19.6684 211.55 19.2968 210.78 18.925 210.01L33.2068 214.584C32.9031 213.511 32.7264 212.479 32.6765 211.487L32.323 209.423L24.3253 206.861L24.1995 205.601L30.8644 207.736L30.3615 202.696L30.171 202.635L29.4777 197.534L29.2873 197.473L28.9101 193.693L27.958 193.388L27.8323 192.128L25.5472 191.396L25.17 187.616L43.6411 193.532L43.1382 188.492L19.5256 180.93L19.3999 179.67L48.9156 189.122L48.7898 187.862L33.556 182.984L33.3045 180.464L27.7822 178.695L27.405 174.915L27.5955 174.976L27.2183 171.196L33.3118 173.148L32.9347 169.368L26.2698 167.233L25.9537 165.912L23.859 165.241L23.7333 163.981L27.1609 165.079L27.0352 163.819L25.3214 163.27L24.8185 158.23L25.0089 158.291L24.6928 156.97L25.0736 157.092L24.6964 153.312L24.2545 150.731L22.3503 150.122L22.0989 147.602L25.1456 148.577L24.7685 144.797L20.96 143.578L20.6438 142.257L23.1193 143.049L22.6164 138.01L22.8069 138.071L22.365 135.49L26.5543 136.831L26.4286 135.571L23.0009 134.474L22.7495 131.954L24.6537 132.563L24.4023 130.043L24.9735 130.226L24.8478 128.966L17.0405 126.466L16.7243 125.145L6.251 121.791L6.1253 120.531L15.0752 123.397L14.3819 118.296L26.3785 122.138L25.8756 117.098L22.6384 116.062L22.0708 112.221L6.8369 107.342L6.7112 106.082L27.277 112.668L26.5836 107.567L3.9232 100.31L3.6718 97.7899L4.6239 98.0949L4.3724 95.5749L7.4192 96.5509L6.7259 91.4499L0.441898 89.4369L0 86.8559L25.3264 94.9679L24.7588 91.1269L6.4781 85.2719L5.9105 81.4309L20.1923 86.0049L19.8151 82.2249L16.197 81.0659L16.0713 79.8059L26.9255 83.2819L26.4226 78.2424L23.7566 77.3886L23.5052 74.8687L35.5019 78.7108L35.2504 76.1908L18.874 70.946L18.1806 65.8451L10.7541 63.4667L10.3769 59.6867L34.3703 67.3709L34.2446 66.1109L31.1978 65.1351L31.0721 63.8752L22.1222 61.0088L21.745 57.2289L17.3653 55.8262L16.8624 50.7863L27.1452 54.0795L26.6423 49.0395L7.2191 42.819L6.9677 40.299L12.2995 42.0066L11.9223 38.2267L6.2096 36.3971L5.642 32.5562L11.5452 34.4467L10.9776 30.6058L17.8328 32.8013L16.9527 23.9814L13.7155 22.9446L13.0222 17.8437L7.3095 16.0141L7.1838 14.7541L8.7071 15.242L8.0785 8.94214L7.6977 8.82014L7.3068 6.01154C7.223 5.17164 7.2491 4.44814 7.3852 3.84124C7.6913 2.47554 8.3273 1.45954 9.2931 0.793039C10.4198 0.0155386 11.5545 -0.190263 12.697 0.175637L38.2138 8.34774C40.2449 8.99824 41.7128 10.0375 42.6172 11.4655C43.6486 12.9342 44.3456 14.3772 44.7082 15.7943C44.953 16.5232 45.0709 17.2115 45.0617 17.8591L45.4015 20.8953L45.7824 21.0172L46.411 27.3172L44.8876 26.8293L45.2038 28.1503L50.9165 29.9798L51.4194 35.0198L54.6566 36.0565L55.5367 44.8764L48.6814 42.6809L49.249 46.5219L43.3459 44.6313L43.9135 48.4723L49.6262 50.3018L50.0034 54.0818L44.6715 52.3742L44.923 54.8942L64.1556 61.0537L64.8486 66.1546L54.5662 62.8614L55.0691 67.9014L59.4486 69.304L59.8256 73.084L68.5856 75.8893L68.7116 77.1493L71.7576 78.1251L71.8836 79.3849L48.0808 71.7619L48.458 75.5418L55.8845 77.9203L56.3874 82.9599L72.9546 88.2659L73.2056 90.7859L61.2086 86.9439L61.4606 89.4639L63.9356 90.2569L64.4386 95.2969L53.5848 91.8199L53.7105 93.0799L57.3286 94.2389L57.7056 98.0189L43.6144 93.5059L43.9916 97.2859L62.4626 103.202L62.8396 106.982L37.7039 98.9319L37.9554 101.452L44.2393 103.464L44.9327 108.565L41.8859 107.589L42.1373 110.109L41.1852 109.804L41.4367 112.324L64.0966 119.582L64.5996 124.622L44.2247 118.096L44.3504 119.356L59.5846 124.235L59.9616 128.015L63.1986 129.052L63.8916 134.153L51.8953 130.31L52.3982 135.35L43.6387 132.545L43.7645 133.805L54.2378 137.159L54.3635 138.419L62.1706 140.92L62.2966 142.18L61.7256 141.997L61.9766 144.517L60.2626 143.968L60.5146 146.488L63.9416 147.585L64.0676 148.845L59.8786 147.504L60.1296 150.024L59.9396 149.963L60.4426 155.003L58.1576 154.271L58.2826 155.531L62.0916 156.751L62.4686 160.53L59.4216 159.555L59.8636 162.136L61.7676 162.746L62.3966 169.045L62.2066 168.984L62.3316 170.244L62.1416 170.183L62.6446 175.223L64.3586 175.772L64.4836 177.032L61.0566 175.935L61.1816 177.195L63.4676 177.926L63.5926 179.186L70.2576 181.321L70.6346 185.101L64.5416 183.149L64.9186 186.929L64.5376 186.807L65.1056 190.648L70.4376 192.356L70.8786 194.937L85.9226 199.755L86.0486 201.015L56.7229 191.623L56.8487 192.883L80.4616 200.445Z" fill="black"/>
</svg>
