<svg width="727" height="526" viewBox="0 0 727 526" fill="none" xmlns="http://www.w3.org/2000/svg">
<path d="M452.816 408.597H505.887V414.791H448.291C447.742 418.646 445.958 421.398 442.943 423.049H466.804C465.432 424.15 463.513 424.701 461.044 424.701H389.461C386.717 424.701 384.66 424.15 383.29 423.049H359.84C356.822 421.398 355.039 418.646 354.492 414.791H412.088V408.597H359.017V400.339H351.612V394.145H410.031V387.951H334.333V385.887H340.093V379.693H387.404V377.628H348.732V375.564H382.467V371.434H377.942V365.241H387.815V363.176H392.341V354.918H393.575V352.853H396.455V344.595H406.74V342.53H388.638V341.704C388.638 339.227 389.597 336.749 391.518 334.272H405.094C407.287 331.794 410.031 330.555 413.322 330.555H484.906C488.47 330.555 491.212 331.794 493.134 334.272H479.969C481.614 336.198 482.437 338.675 482.437 341.704V342.53H500.539V344.595H490.254V352.853H487.374V354.918H486.14V363.176H481.614V365.241H471.741V371.434H476.266V375.564H442.531V377.628H481.203V379.693H433.892V385.887H428.132V387.951H503.83V394.145H445.411V400.339H452.816V408.597Z" fill="white"/>
<path d="M568.202 482.864H549.095V490.763H554.306V494.712H555.464V502.611H559.517V504.586H562.991V508.535H571.676V514.459C571.676 515.249 571.485 515.907 571.097 516.434C570.327 520.384 567.238 523.016 561.833 524.333H556.622C554.306 524.86 552.378 525.123 550.832 525.123H200.543C199 525.123 197.069 524.86 194.753 524.333H199.964C194.562 523.016 191.28 520.384 190.122 516.434V508.535H181.437V504.586H177.963V502.611H173.91V494.712H172.752V490.763H167.541V482.864H186.648V480.889H191.28V476.94H166.962V474.965H176.805V469.041H174.489V461.142H175.068V458.378C175.068 457.061 175.262 456.008 175.647 455.218H172.173C174.877 450.216 179.894 447.714 187.227 447.714H537.516C545.621 447.714 550.641 450.216 552.569 455.218H555.464C555.852 455.745 556.043 456.271 556.043 456.798C556.431 457.325 556.622 457.851 556.622 458.378V461.142H556.043V469.041H558.359V474.965H548.516V476.94H572.834V480.889H568.202V482.864Z" fill="white"/>
<path d="M634.683 71.2134L634.42 73.8494L648.363 69.3838L648.1 72.0199L632.962 76.8683L632.436 82.1403L636.42 80.8645L635.893 86.1366L632.706 87.1573L631.917 95.0654L630.324 95.5758L629.535 103.484L624.355 105.143L623.303 115.687L638.044 110.966L637.518 116.238L628.355 119.173L627.566 127.081L624.777 127.974L623.326 138.646L625.717 137.88L624.529 145.916L627.716 144.895L627.453 147.531L620.681 149.7L620.418 152.336L635.158 147.615L634.632 152.887L625.071 155.95L624.018 166.494L627.604 165.345L626.552 175.89L628.544 175.252L627.755 183.16L614.209 187.498L613.285 192.898L620.456 190.601L619.667 198.509L605.325 203.102L604.273 213.647L623.794 207.395L623.005 215.303L617.427 217.089L615.977 227.761L617.172 227.378L616.383 235.286L615.984 235.414L615.06 240.813L615.458 240.686L614.669 248.594L614.008 251.358L615.601 250.847L615.075 256.119L622.246 253.823L621.194 264.367L607.649 268.705L606.597 279.249L609.385 278.356L607.935 289.028L633.83 280.734L632.906 286.134L636.89 284.858L635.838 295.402L611.137 303.313L610.611 308.585L601.847 311.392L601.321 316.664L606.101 315.133L605.049 325.677L607.041 325.039L606.515 330.311L605.32 330.694L604.531 338.602L606.124 338.092L604.674 348.764L605.471 348.508L605.208 351.144L593.256 354.972L592.73 360.244L592.331 360.372L591.279 370.916L607.613 365.685L606.426 373.721L602.84 374.869L602.577 377.505L600.187 378.27L599.135 388.815L598.736 388.942L598.21 394.214L599.007 393.959L597.556 404.631L601.939 403.227L601.676 405.863L601.277 405.991L600.488 413.899L595.708 415.43L595.445 418.066L587.078 420.746L586.552 426.018L583.764 426.911L583.238 432.183L587.62 430.78L586.958 433.543L601.3 428.95L600.774 434.222L591.611 437.157L590.822 445.065L592.814 444.427L592.736 445.983L591.627 452.462L591.228 452.59C590.592 454.835 589.621 456.848 588.312 458.628L603.052 453.907C601.743 455.686 600.593 456.907 599.602 457.564L587.65 461.391C586.004 462.939 583.72 464.181 580.8 465.116L528.611 481.831C527.017 482.341 525.448 482.333 523.908 481.806L535.86 477.978C535.257 477.832 534.282 477.292 532.936 476.363L518.195 481.083C516.705 479.519 515.819 478.101 515.534 476.832L515.107 474.927C514.823 473.658 514.768 472.145 514.943 470.387L515.128 469.307L512.738 470.072L513.527 462.164L522.69 459.23L523.614 453.83L509.272 458.423L509.535 455.787L505.552 457.063L506.078 451.791L508.468 451.025L508.994 445.753L517.759 442.946L518.022 440.31L522.404 438.907L523.193 430.999L523.591 430.871L523.854 428.235L519.871 429.511L520.923 418.967L520.126 419.222L520.652 413.95L521.05 413.822L522.102 403.278L524.493 402.512L524.756 399.876L528.74 398.601L529.529 390.692L513.195 395.924L514.247 385.379L514.645 385.252L515.172 379.98L527.123 376.152L527.386 373.516L526.589 373.771L528.04 363.099L526.446 363.61L527.235 355.702L528.431 355.319L528.957 350.047L526.566 350.812L528.017 340.141L523.236 341.672L523.762 336.4L532.527 333.593L533.053 328.32L557.355 320.538L558.407 309.993L554.821 311.142L555.347 305.87L529.851 314.035L530.903 303.491L528.114 304.384L529.564 293.712L542.711 289.502L543.763 278.958L536.592 281.254L537.119 275.982L535.923 276.365L537.502 260.549L537.9 260.421L538.689 252.513L537.494 252.896L538.944 242.224L544.522 240.438L545.311 232.53L525.79 238.782L526.842 228.237L540.786 223.772L541.973 215.736L534.802 218.033L535.328 212.761L549.272 208.295L550.061 200.387L547.671 201.152L549.121 190.481L545.137 191.757L546.588 181.085L556.149 178.023L556.675 172.751L541.935 177.471L542.198 174.835L548.572 172.794L548.835 170.158L546.046 171.051L546.835 163.143L544.844 163.781L545.896 153.237L548.684 152.343L549.474 144.435L558.636 141.501L559.561 136.101L544.422 140.949L545.474 130.405L550.653 128.747L551.442 120.839L553.036 120.328L553.825 112.42L557.012 111.399L557.538 106.127L553.554 107.403L554.08 102.131L569.219 97.2826L569.482 94.6466L555.539 99.1122L555.802 96.4762L539.069 101.835L539.595 96.5628L550.75 92.9903L552.201 82.3186L562.957 78.8736L563.22 76.2376L553.659 79.2997L554.711 68.7556L545.15 71.8177L545.413 69.1816L558.161 65.0988L558.687 59.8267L552.712 61.7406L553.238 56.4685L546.465 58.6375L547.254 50.7294L557.214 47.5396L557.662 43.8236C557.978 42.7016 558.163 41.6216 558.217 40.5838C558.462 39.1443 558.878 37.8202 559.461 36.6126L553.485 38.5265C554.314 35.8795 555.747 33.3789 557.782 31.0262C559.816 28.6734 562.559 26.9446 566.013 25.8384L619.397 8.74132C623.911 7.29573 627.438 9.05816 629.976 14.0293L635.554 12.243C635.961 12.7931 636.272 13.544 636.486 14.4963C636.77 15.7661 636.824 17.2801 636.65 19.0371L636.095 22.2769L626.534 25.339L625.346 33.3747L632.517 31.0781L631.593 36.4778L637.569 34.564L637.043 39.8361L624.294 43.9189L624.031 46.5549L633.592 43.4928L632.54 54.037L642.102 50.9748L641.839 53.6109L631.082 57.0558L629.631 67.7276L618.477 71.3001L617.951 76.5722L634.683 71.2134Z" fill="white"/>
<path d="M243.407 421.795L244.459 432.339L205.815 419.963L206.604 427.871L211.385 429.402L211.648 432.038L213.241 432.549L214.03 440.457L214.827 440.712L215.879 451.256L216.278 451.384L217.728 462.056L203.386 457.462L203.649 460.098L220.78 465.585L221.228 469.301C221.404 471.059 221.349 472.572 221.064 473.841L220.239 475.618L190.359 466.049C189.117 469.053 187.255 471.008 184.774 471.916L179.595 470.257C178.319 470.869 176.752 470.878 174.893 470.282L122.704 453.568C120.048 452.718 117.764 451.476 115.853 449.843L121.032 451.502C119.315 450.271 117.971 448.651 116.999 446.637C116.221 445.028 115.443 443.416 114.665 441.807L144.545 451.376C143.909 449.132 143.54 446.972 143.435 444.897L142.696 440.577L125.963 435.218L125.7 432.582L139.644 437.048L138.592 426.504L138.193 426.376L136.743 415.704L136.344 415.577L135.555 407.669L133.563 407.031L133.3 404.395L128.52 402.864L127.731 394.956L166.374 407.332L165.322 396.787L115.922 380.966L115.659 378.33L177.409 398.107L177.146 395.471L145.275 385.264L144.749 379.991L133.196 376.291L132.407 368.383L132.805 368.511L132.016 360.603L144.764 364.686L143.975 356.777L130.032 352.312L129.37 349.548L124.988 348.145L124.725 345.509L131.896 347.805L131.633 345.169L128.047 344.021L126.995 333.477L127.394 333.604L126.732 330.841L127.529 331.096L126.74 323.188L125.815 317.788L121.832 316.512L121.305 311.24L127.68 313.281L126.891 305.373L118.923 302.822L118.261 300.058L123.44 301.717L122.388 291.172L122.787 291.3L121.862 285.9L130.627 288.707L130.364 286.071L123.193 283.775L122.667 278.503L126.651 279.778L126.124 274.506L127.32 274.889L127.057 272.253L110.723 267.022L110.061 264.258L88.1498 257.241L87.8867 254.605L106.611 260.602L105.161 249.93L130.259 257.968L129.207 247.424L122.434 245.255L121.247 237.219L89.3756 227.012L89.1126 224.376L132.139 238.155L130.688 227.484L83.2798 212.301L82.7537 207.028L84.7457 207.666L84.2196 202.394L90.5938 204.436L89.1433 193.764L75.9964 189.553L75.072 184.154L128.058 201.123L126.87 193.087L88.6249 180.839L87.4374 172.803L117.317 182.372L116.528 174.464L108.958 172.04L108.695 169.404L131.403 176.677L130.351 166.132L124.774 164.346L124.248 159.074L149.346 167.112L148.82 161.84L114.559 150.867L113.108 140.196L97.5709 135.22L96.7818 127.312L146.979 143.388L146.716 140.752L140.342 138.71L140.079 136.074L121.354 130.078L120.565 122.169L111.402 119.235L110.35 108.691L131.863 115.581L130.811 105.036L90.1752 92.0223L89.6491 86.7502L100.804 90.3227L100.015 82.4146L88.0632 78.5869L86.8757 70.5511L99.2258 74.5064L98.0383 66.4707L112.38 71.0639L110.539 52.6116L103.766 50.4426L102.316 39.7708L90.3642 35.9431L90.1012 33.3071L93.2883 34.3278L91.9732 21.1476L91.1764 20.8924L90.3587 15.0165C90.1833 13.2592 90.238 11.7456 90.5226 10.4758C91.1631 7.61875 92.4936 5.49307 94.5142 4.09873C96.8715 2.47201 99.2453 2.04143 101.636 2.80697L155.02 19.904C159.269 21.2649 162.34 23.4392 164.232 26.4269C166.39 29.4996 167.848 32.5184 168.607 35.4833C169.119 37.0083 169.366 38.4482 169.347 39.8031L170.058 46.1551L170.854 46.4103L172.169 59.5905L168.982 58.5698L169.644 61.3334L181.595 65.1611L182.648 75.7053L189.42 77.8743L191.261 96.3266L176.919 91.7334L178.107 99.7691L165.757 95.8139L166.944 103.85L178.896 107.677L179.685 115.585L168.53 112.013L169.056 117.285L209.294 130.172L210.744 140.843L189.231 133.953L190.283 144.498L199.446 147.432L200.235 155.34L218.561 161.209L218.824 163.845L225.199 165.887L225.462 168.523L175.663 152.574L176.452 160.482L191.989 165.458L193.041 176.003L227.701 187.103L228.227 192.375L203.129 184.337L203.655 189.609L208.834 191.268L209.886 201.812L187.178 194.539L187.441 197.175L195.01 199.599L195.799 207.508L166.319 198.066L167.108 205.974L205.751 218.35L206.541 226.258L153.953 209.417L154.479 214.689L167.626 218.899L169.077 229.571L162.702 227.529L163.228 232.801L161.236 232.164L161.763 237.436L209.171 252.619L210.223 263.163L167.595 249.511L167.858 252.147L199.73 262.354L200.519 270.262L207.291 272.431L208.742 283.103L183.643 275.065L184.695 285.609L166.369 279.74L166.633 282.376L188.544 289.393L188.807 292.029L205.141 297.261L205.404 299.897L204.209 299.514L204.735 304.786L201.149 303.638L201.675 308.91L208.846 311.206L209.11 313.842L200.345 311.035L200.871 316.308L200.473 316.18L201.525 326.724L196.744 325.193L197.007 327.829L204.975 330.381L205.764 338.289L199.39 336.248L200.314 341.647L204.298 342.923L205.613 356.103L205.215 355.976L205.478 358.612L205.08 358.484L206.132 369.028L209.717 370.177L209.98 372.813L202.809 370.516L203.072 373.152L207.853 374.683L208.116 377.319L222.06 381.785L222.849 389.693L210.1 385.61L210.889 393.518L210.093 393.263L211.28 401.299L222.435 404.871L223.359 410.271L254.832 420.351L255.095 422.987L193.743 403.338L194.006 405.974L243.407 421.795Z" fill="white"/>
</svg>
