<svg width="1520" height="334" viewBox="0 0 1520 334" fill="none" xmlns="http://www.w3.org/2000/svg">
<path d="M446.055 157V79.1875C446.055 77.7708 446.576 76.5417 447.617 75.5C448.659 74.4583 449.888 73.9375 451.305 73.9375C452.722 73.9375 453.951 74.4583 454.992 75.5C456.034 76.5417 456.555 77.7708 456.555 79.1875V146.5H493.68C495.138 146.5 496.388 147.021 497.43 148.062C498.513 149.062 499.055 150.292 499.055 151.75C499.055 153.208 498.513 154.458 497.43 155.5C496.388 156.5 495.138 157 493.68 157H446.055ZM539.055 119.125H559.617C560.742 119.125 562.367 119.375 564.492 119.875L564.367 112.438C564.367 110.979 563.847 109.75 562.805 108.75C561.805 107.708 560.576 107.188 559.117 107.188H539.18C537.763 107.188 536.534 106.667 535.492 105.625C534.451 104.583 533.93 103.354 533.93 101.938C533.93 100.479 534.43 99.25 535.43 98.25C536.472 97.2083 537.722 96.6875 539.18 96.6875H559.117C563.451 96.6875 567.138 98.2083 570.18 101.25C573.263 104.292 574.867 108.021 574.992 112.438L576.305 151.75C576.305 153.208 575.784 154.458 574.742 155.5C573.701 156.5 572.472 157 571.055 157C569.555 157 568.284 156.5 567.242 155.5C566.201 154.458 565.68 153.208 565.68 151.75L556.805 157H539.055C534.638 157 530.888 155.458 527.805 152.375C524.722 149.292 523.18 145.542 523.18 141.125V135C523.18 130.625 524.722 126.896 527.805 123.812C530.93 120.687 534.68 119.125 539.055 119.125ZM565.305 139.562L564.992 135.125C564.951 133.625 564.43 132.375 563.43 131.375C562.43 130.375 561.201 129.875 559.742 129.875H539.055C537.597 129.875 536.347 130.396 535.305 131.438C534.305 132.438 533.805 133.667 533.805 135.125V141C533.805 142.417 534.326 143.646 535.367 144.688C536.409 145.729 537.638 146.25 539.055 146.25H553.867L565.305 139.562Z" fill="white"/>
<path d="M418.352 253.594H447.942C450.22 253.594 452.173 254.408 453.801 256.035C455.494 257.598 456.34 259.518 456.34 261.797C456.34 264.076 455.494 266.029 453.801 267.656C452.173 269.219 450.22 270 447.942 270H417.278C413.371 270 409.335 268.763 405.168 266.289C401.002 263.815 398.104 261.048 396.477 257.988L377.532 221.367C374.992 216.094 373.723 210.69 373.723 205.156C373.723 199.036 374.927 193.73 377.336 189.238L396.477 153.008C398.3 149.622 401.132 146.66 404.973 144.121C408.814 141.517 412.525 140.215 416.106 140.215H448.528C450.806 140.215 452.727 141.029 454.289 142.656C455.917 144.284 456.731 146.204 456.731 148.418C456.731 150.697 455.917 152.682 454.289 154.375C452.727 156.003 450.806 156.816 448.528 156.816H417.278C414.673 156.816 412.558 158.346 410.93 161.406L392.766 195.391C391.334 198.06 390.617 201.217 390.617 204.863C390.617 208.704 391.399 212.09 392.961 215.02L410.344 248.418C411.972 251.868 414.641 253.594 418.352 253.594ZM576.848 205.352V240.02C576.848 247.376 573.365 254.18 566.399 260.43C559.498 266.68 552.369 269.805 545.012 269.805H525.774C518.287 269.805 511.125 266.647 504.289 260.332C497.453 253.952 494.035 247.181 494.035 240.02V205.352C494.035 198.19 497.356 191.452 503.996 185.137C510.702 178.757 517.961 175.566 525.774 175.566H545.012C552.369 175.436 559.498 178.496 566.399 184.746C573.365 190.996 576.848 197.865 576.848 205.352ZM510.637 206.035V239.238C510.637 242.233 511.711 244.609 513.86 246.367L520.012 251.641C521.379 252.812 523.3 253.398 525.774 253.398H544.817C547.616 253.398 550.155 252.389 552.434 250.371L557.414 245.977C559.433 244.414 560.442 242.233 560.442 239.434V206.23C560.442 202.975 559.433 200.566 557.414 199.004L551.653 194.414C549.7 192.786 547.421 191.973 544.817 191.973H527.825C524.114 191.973 521.249 192.852 519.231 194.609L513.664 199.395C511.646 201.087 510.637 203.301 510.637 206.035ZM615.129 261.797V183.965C615.129 181.686 615.91 179.733 617.473 178.105C619.101 176.413 621.054 175.566 623.332 175.566C625.611 175.566 627.532 176.38 629.094 178.008C630.722 179.635 631.535 181.621 631.535 183.965V194.219L644.914 182.793C650.448 178.105 655.852 175.762 661.125 175.762H673.137C679.908 175.762 685.702 178.171 690.52 182.988C695.338 187.806 697.746 193.6 697.746 200.371V204.766C697.746 207.109 696.933 209.095 695.305 210.723C693.742 212.35 691.822 213.164 689.543 213.164C687.265 213.164 685.311 212.383 683.684 210.82C682.121 209.193 681.34 207.24 681.34 204.961V200.371C681.34 198.092 680.526 196.172 678.899 194.609C677.336 192.982 675.416 192.168 673.137 192.168H662.492C660.214 192.168 657.675 193.372 654.875 195.781L631.535 215.996V261.797C631.535 264.076 630.722 266.029 629.094 267.656C627.466 269.219 625.546 270 623.332 270C621.054 270 619.101 269.219 617.473 267.656C615.91 266.029 615.129 264.076 615.129 261.797ZM752.825 148.418V186.992L760.051 181.23C764.608 177.454 769.328 175.566 774.211 175.566H789.25C794.784 175.566 799.7 177.454 803.996 181.23L811.809 187.969C813.957 189.857 815.715 192.559 817.082 196.074C818.515 199.59 819.231 203.04 819.231 206.426V239.629C819.231 242.624 818.58 245.781 817.278 249.102C815.976 252.422 814.478 254.863 812.785 256.426L805.657 263.164C803.834 264.922 801.229 266.517 797.844 267.949C794.459 269.316 791.594 270 789.25 270H775.188C768.352 270 760.897 266.191 752.825 258.574V261.797C752.825 264.076 752.011 266.029 750.383 267.656C748.821 269.219 746.9 270 744.621 270C742.343 270 740.39 269.219 738.762 267.656C737.2 266.029 736.418 264.076 736.418 261.797V148.418C736.418 146.139 737.232 144.219 738.86 142.656C740.487 141.029 742.408 140.215 744.621 140.215C746.9 140.215 748.821 141.029 750.383 142.656C752.011 144.219 752.825 146.139 752.825 148.418ZM787.981 192.168H776.653C773.918 192.168 771.835 192.786 770.403 194.023L755.657 206.621C753.769 208.314 752.825 210.853 752.825 214.238V232.793C752.825 235.527 753.899 237.806 756.047 239.629L769.231 250.762C771.119 252.52 773.104 253.398 775.188 253.398H788.567C790.455 253.398 792.082 252.812 793.45 251.641L799.992 245.781C801.75 244.479 802.629 242.624 802.629 240.215V205.645C802.629 202.91 801.75 200.827 799.992 199.395L794.035 194.414C792.213 192.917 790.194 192.168 787.981 192.168ZM939.543 206.621V226.445C939.543 228.659 938.729 230.579 937.102 232.207C935.474 233.835 933.554 234.648 931.34 234.648H873.332V239.434C873.332 242.233 874.537 244.609 876.946 246.562L881.731 250.566C884.335 252.585 886.809 253.594 889.153 253.594H931.34C933.554 253.594 935.474 254.408 937.102 256.035C938.729 257.598 939.543 259.518 939.543 261.797C939.543 264.01 938.697 265.931 937.004 267.559C935.377 269.186 933.489 270 931.34 270H888.078C885.214 270 882.186 269.414 878.996 268.242C875.871 267.005 873.56 265.736 872.063 264.434L864.739 257.988C862.46 256.165 860.539 253.626 858.977 250.371C857.479 247.116 856.731 244.121 856.731 241.387V203.789C856.731 201.641 857.545 198.743 859.172 195.098C860.865 191.452 862.981 188.62 865.52 186.602L872.356 181.23C876.848 177.585 881.828 175.762 887.297 175.762H910.344C916.138 175.762 921.607 178.171 926.75 182.988L932.903 188.848C937.33 192.819 939.543 198.743 939.543 206.621ZM873.528 205.352V218.047H923.332V206.621C923.332 203.561 922.388 201.217 920.5 199.59L915.715 195.391C913.241 193.372 911.028 192.363 909.075 192.363H888.469C885.93 192.363 883.619 193.242 881.535 195L876.75 199.004C874.602 200.632 873.528 202.747 873.528 205.352ZM1010.64 132.988H1019.23C1021.51 132.988 1023.43 133.802 1025 135.43C1026.62 136.992 1027.44 138.913 1027.44 141.191V148.223C1027.44 150.501 1026.62 152.487 1025 154.18C1023.43 155.807 1021.51 156.621 1019.23 156.621H1010.44C1008.1 156.621 1006.12 155.775 1004.49 154.082C1002.93 152.389 1002.18 150.501 1002.24 148.418L1002.44 141.191C1002.44 138.913 1003.22 136.992 1004.78 135.43C1006.41 133.802 1008.36 132.988 1010.64 132.988ZM1044.04 269.805H994.035C991.757 269.805 989.804 269.023 988.176 267.461C986.614 265.833 985.832 263.88 985.832 261.602C985.832 259.388 986.614 257.467 988.176 255.84C989.804 254.212 991.757 253.398 994.035 253.398H1010.84V192.168H994.231C991.952 192.168 989.999 191.354 988.371 189.727C986.809 188.099 986.028 186.178 986.028 183.965C986.028 181.686 986.809 179.733 988.371 178.105C989.999 176.413 991.952 175.566 994.231 175.566H1019.23C1021.51 175.566 1023.43 176.413 1025 178.105C1026.62 179.733 1027.44 181.686 1027.44 183.965V253.398H1043.84C1046.12 253.398 1048.07 254.212 1049.7 255.84C1051.4 257.402 1052.24 259.323 1052.24 261.602C1052.24 263.88 1051.43 265.833 1049.8 267.461C1048.17 269.023 1046.25 269.805 1044.04 269.805ZM1164.94 270H1115.33C1113.05 270 1111.1 269.186 1109.47 267.559C1107.91 265.866 1107.12 263.88 1107.12 261.602C1107.12 259.388 1107.91 257.467 1109.47 255.84C1111.1 254.212 1113.05 253.398 1115.33 253.398H1131.73V156.621H1115.13C1112.85 156.621 1110.9 155.84 1109.27 154.277C1107.71 152.65 1106.93 150.697 1106.93 148.418C1106.93 146.139 1107.71 144.219 1109.27 142.656C1110.9 141.029 1112.85 140.215 1115.13 140.215H1140.13C1142.35 140.215 1144.27 141.029 1145.89 142.656C1147.52 144.284 1148.34 146.204 1148.34 148.418V253.398H1164.94C1167.15 253.398 1169.07 254.212 1170.7 255.84C1172.33 257.467 1173.14 259.388 1173.14 261.602C1173.14 263.88 1172.33 265.866 1170.7 267.559C1169.14 269.186 1167.22 270 1164.94 270ZM1285.84 270H1236.23C1233.95 270 1231.99 269.186 1230.37 267.559C1228.8 265.866 1228.02 263.88 1228.02 261.602C1228.02 259.388 1228.8 257.467 1230.37 255.84C1231.99 254.212 1233.95 253.398 1236.23 253.398H1252.63V156.621H1236.03C1233.75 156.621 1231.8 155.84 1230.17 154.277C1228.61 152.65 1227.83 150.697 1227.83 148.418C1227.83 146.139 1228.61 144.219 1230.17 142.656C1231.8 141.029 1233.75 140.215 1236.03 140.215H1261.03C1263.24 140.215 1265.16 141.029 1266.79 142.656C1268.42 144.284 1269.23 146.204 1269.23 148.418V253.398H1285.84C1288.05 253.398 1289.97 254.212 1291.6 255.84C1293.22 257.467 1294.04 259.388 1294.04 261.602C1294.04 263.88 1293.22 265.866 1291.6 267.559C1290.03 269.186 1288.11 270 1285.84 270ZM1423.14 206.621V226.445C1423.14 228.659 1422.33 230.579 1420.7 232.207C1419.07 233.835 1417.15 234.648 1414.94 234.648H1356.93V239.434C1356.93 242.233 1358.13 244.609 1360.54 246.562L1365.33 250.566C1367.93 252.585 1370.41 253.594 1372.75 253.594H1414.94C1417.15 253.594 1419.07 254.408 1420.7 256.035C1422.33 257.598 1423.14 259.518 1423.14 261.797C1423.14 264.01 1422.29 265.931 1420.6 267.559C1418.97 269.186 1417.09 270 1414.94 270H1371.68C1368.81 270 1365.78 269.414 1362.59 268.242C1359.47 267.005 1357.16 265.736 1355.66 264.434L1348.34 257.988C1346.06 256.165 1344.14 253.626 1342.57 250.371C1341.08 247.116 1340.33 244.121 1340.33 241.387V203.789C1340.33 201.641 1341.14 198.743 1342.77 195.098C1344.46 191.452 1346.58 188.62 1349.12 186.602L1355.95 181.23C1360.44 177.585 1365.43 175.762 1370.89 175.762H1393.94C1399.74 175.762 1405.2 178.171 1410.35 182.988L1416.5 188.848C1420.93 192.819 1423.14 198.743 1423.14 206.621ZM1357.12 205.352V218.047H1406.93V206.621C1406.93 203.561 1405.99 201.217 1404.1 199.59L1399.31 195.391C1396.84 193.372 1394.62 192.363 1392.67 192.363H1372.07C1369.53 192.363 1367.22 193.242 1365.13 195L1360.35 199.004C1358.2 200.632 1357.12 202.747 1357.12 205.352ZM1494.23 218.242H1510.84C1513.05 218.242 1514.97 219.056 1516.6 220.684C1518.22 222.246 1519.04 224.167 1519.04 226.445V240.41C1519.04 242.689 1518.22 244.674 1516.6 246.367C1515.03 247.995 1513.11 248.809 1510.84 248.809H1494.04C1491.76 248.809 1489.81 247.995 1488.18 246.367C1486.62 244.74 1485.84 242.819 1485.84 240.605V226.445C1485.84 224.167 1486.65 222.246 1488.28 220.684C1489.9 219.056 1491.89 218.242 1494.23 218.242Z" fill="white"/>
<g filter="url(#filter0_d_155_691)">
<path d="M222.555 236.303H247.922V239.263H220.392C220.13 241.106 219.277 242.421 217.836 243.211H229.241C228.585 243.737 227.668 244 226.488 244H192.272C190.961 244 189.977 243.737 189.323 243.211H178.114C176.672 242.421 175.819 241.106 175.558 239.263H203.088V236.303H177.721V232.355H174.181V229.395H202.104V226.434H165.922V225.447H168.675V222.487H191.289V221.5H172.805V220.513H188.929V218.539H186.766V215.579H191.486V214.592H193.649V210.645H194.239V209.658H195.615V205.711H200.531V204.724H191.879V204.329C191.879 203.145 192.337 201.961 193.256 200.776H199.745C200.793 199.592 202.104 199 203.678 199H237.893C239.597 199 240.908 199.592 241.826 200.776H235.534C236.32 201.697 236.714 202.881 236.714 204.329V204.724H245.366V205.711H240.45V209.658H239.073V210.645H238.483V214.592H236.32V215.579H231.601V218.539H233.764V220.513H217.639V221.5H236.124V222.487H213.51V225.447H210.757V226.434H246.939V229.395H219.016V232.355H222.555V236.303Z" fill="#F500FF"/>
</g>
<g filter="url(#filter1_d_155_691)">
<path d="M277.708 271.801H268.576V275.577H271.066V277.464H271.62V281.24H273.557V282.184H275.217V284.071H279.369V286.903C279.369 287.281 279.277 287.595 279.092 287.847C278.724 289.735 277.247 290.993 274.664 291.622H272.173C271.066 291.874 270.145 292 269.406 292H101.974C101.236 292 100.313 291.874 99.2057 291.622H101.697C99.1145 290.993 97.5453 289.735 96.9918 287.847V284.071H92.8406V282.184H91.1801V281.24H89.2429V277.464H88.6894V275.577H86.1986V271.801H95.3313V270.857H97.5453V268.969H85.9219V268.026H90.6266V265.194H89.5196V261.418H89.7963V260.097C89.7963 259.467 89.889 258.964 90.0731 258.587H88.4126C89.705 256.196 92.103 255 95.608 255H263.041C266.915 255 269.314 256.196 270.236 258.587H271.62C271.805 258.839 271.897 259.09 271.897 259.342C272.082 259.594 272.173 259.845 272.173 260.097V261.418H271.897V265.194H273.003V268.026H268.299V268.969H279.922V270.857H277.708V271.801Z" fill="#F500FF"/>
</g>
<g filter="url(#filter2_d_155_691)">
<path d="M309.485 75.0388L309.36 76.2988L316.024 74.1643L315.899 75.4243L308.663 77.7417L308.411 80.2617L310.315 79.6518L310.064 82.1718L308.541 82.6597L308.163 86.4396L307.402 86.6836L307.025 90.4635L304.549 91.2563L304.046 96.2963L311.092 94.0398L310.84 96.5598L306.461 97.9625L306.083 101.742L304.75 102.169L304.057 107.27L305.2 106.904L304.632 110.745L306.155 110.257L306.03 111.517L302.793 112.554L302.667 113.814L309.712 111.558L309.461 114.078L304.891 115.541L304.388 120.581L306.102 120.032L305.599 125.072L306.551 124.767L306.174 128.547L299.699 130.621L299.257 133.202L302.685 132.104L302.308 135.884L295.453 138.079L294.95 143.119L304.281 140.131L303.903 143.911L301.237 144.765L300.544 149.866L301.115 149.683L300.738 153.463L300.548 153.524L300.106 156.105L300.296 156.044L299.919 159.824L299.603 161.145L300.365 160.901L300.113 163.421L303.541 162.323L303.038 167.363L296.564 169.436L296.061 174.476L297.394 174.049L296.7 179.15L309.078 175.186L308.636 177.767L310.54 177.157L310.037 182.197L298.231 185.978L297.979 188.498L293.79 189.84L293.539 192.36L295.824 191.628L295.321 196.668L296.273 196.363L296.022 198.883L295.45 199.066L295.073 202.846L295.835 202.602L295.141 207.703L295.522 207.581L295.397 208.841L289.684 210.671L289.432 213.191L289.242 213.252L288.739 218.292L296.546 215.791L295.979 219.632L294.265 220.181L294.139 221.441L292.997 221.807L292.494 226.847L292.304 226.908L292.052 229.428L292.433 229.306L291.74 234.407L293.834 233.736L293.708 234.996L293.518 235.057L293.141 238.837L290.856 239.569L290.73 240.829L286.731 242.109L286.48 244.629L285.147 245.056L284.895 247.576L286.99 246.905L286.674 248.226L293.529 246.031L293.278 248.551L288.898 249.953L288.521 253.733L289.473 253.429L289.435 254.172L288.905 257.269L288.715 257.33C288.41 258.404 287.946 259.366 287.321 260.216L294.366 257.96C293.741 258.81 293.191 259.394 292.717 259.708L287.005 261.537C286.217 262.277 285.126 262.871 283.73 263.318L258.785 271.307C258.023 271.551 257.273 271.547 256.537 271.295L262.25 269.465C261.961 269.395 261.495 269.137 260.852 268.693L253.806 270.95C253.094 270.202 252.67 269.524 252.534 268.918L252.33 268.007C252.194 267.401 252.168 266.677 252.252 265.837L252.34 265.321L251.198 265.687L251.575 261.907L255.955 260.504L256.396 257.923L249.541 260.119L249.667 258.859L247.763 259.468L248.014 256.948L249.157 256.583L249.408 254.063L253.597 252.721L253.723 251.461L255.818 250.79L256.195 247.01L256.385 246.949L256.511 245.689L254.607 246.299L255.11 241.259L254.729 241.381L254.98 238.861L255.171 238.8L255.674 233.76L256.816 233.394L256.942 232.134L258.846 231.524L259.223 227.744L251.416 230.245L251.919 225.205L252.109 225.144L252.361 222.624L258.074 220.794L258.199 219.534L257.818 219.656L258.512 214.555L257.75 214.799L258.127 211.019L258.699 210.836L258.95 208.316L257.807 208.682L258.501 203.581L256.216 204.313L256.467 201.793L260.656 200.452L260.908 197.932L272.524 194.212L273.027 189.172L271.313 189.72L271.564 187.2L259.377 191.104L259.88 186.064L258.547 186.491L259.24 181.39L265.524 179.377L266.027 174.337L262.6 175.435L262.851 172.915L262.28 173.098L263.034 165.538L263.225 165.477L263.602 161.697L263.031 161.88L263.724 156.779L266.39 155.925L266.767 152.145L257.436 155.134L257.939 150.094L264.604 147.959L265.172 144.118L261.744 145.216L261.995 142.696L268.66 140.561L269.037 136.782L267.895 137.147L268.588 132.047L266.684 132.656L267.377 127.555L271.948 126.092L272.199 123.572L265.153 125.828L265.279 124.568L268.326 123.593L268.452 122.333L267.119 122.759L267.496 118.98L266.544 119.284L267.047 114.245L268.379 113.818L268.757 110.038L273.136 108.635L273.578 106.054L266.342 108.372L266.845 103.332L269.321 102.539L269.698 98.7587L270.459 98.5148L270.837 94.7348L272.36 94.247L272.612 91.727L270.707 92.3368L270.959 89.8169L278.195 87.4994L278.321 86.2394L271.656 88.3739L271.781 87.114L263.784 89.6753L264.035 87.1554L269.367 85.4478L270.06 80.3469L275.202 78.7002L275.327 77.4402L270.757 78.9039L271.26 73.864L266.69 75.3276L266.816 74.0676L272.909 72.1161L273.161 69.5961L270.304 70.5109L270.556 67.9909L267.319 69.0277L267.696 65.2478L272.456 63.7231L272.671 61.9469C272.822 61.4106 272.91 60.8944 272.936 60.3983C273.053 59.7103 273.252 59.0774 273.531 58.5002L270.674 59.415C271.07 58.1498 271.755 56.9545 272.728 55.83C273.7 54.7054 275.011 53.879 276.662 53.3503L302.179 45.1782C304.336 44.4872 306.022 45.3296 307.236 47.7057L309.902 46.8519C310.096 47.1148 310.245 47.4737 310.347 47.929C310.483 48.5359 310.509 49.2596 310.425 50.0994L310.16 51.6479L305.59 53.1116L305.023 56.9525L308.45 55.8548L308.008 58.4358L310.865 57.521L310.613 60.0409L304.52 61.9925L304.394 63.2524L308.964 61.7888L308.461 66.8287L313.031 65.3651L312.906 66.6251L307.764 68.2717L307.071 73.3726L301.739 75.0802L301.488 77.6002L309.485 75.0388Z" fill="#F500FF"/>
</g>
<g filter="url(#filter3_d_155_691)">
<path d="M122.462 242.611L122.964 247.651L104.493 241.735L104.871 245.515L107.156 246.247L107.281 247.507L108.043 247.751L108.42 251.531L108.801 251.653L109.304 256.693L109.494 256.754L110.188 261.855L103.333 259.659L103.458 260.919L111.646 263.542L111.861 265.318C111.945 266.158 111.918 266.882 111.782 267.488L111.388 268.338L97.1055 263.764C96.5115 265.199 95.6217 266.134 94.4359 266.568L91.9604 265.775C91.3506 266.068 90.6013 266.072 89.7127 265.787L64.7672 257.798C63.4977 257.391 62.4062 256.798 61.4926 256.017L63.9681 256.81C63.1476 256.222 62.5048 255.448 62.0402 254.485C61.6684 253.716 61.2968 252.946 60.925 252.176L75.2068 256.75C74.9031 255.677 74.7264 254.645 74.6765 253.653L74.323 251.589L66.3253 249.027L66.1995 247.767L72.8644 249.902L72.3615 244.862L72.171 244.801L71.4777 239.7L71.2873 239.639L70.9101 235.859L69.958 235.554L69.8323 234.294L67.5472 233.562L67.17 229.782L85.6411 235.698L85.1382 230.658L61.5256 223.096L61.3999 221.836L90.9156 231.288L90.7898 230.028L75.556 225.15L75.3045 222.63L69.7822 220.861L69.405 217.081L69.5955 217.142L69.2183 213.362L75.3118 215.314L74.9347 211.534L68.2698 209.399L67.9537 208.078L65.859 207.407L65.7333 206.147L69.1609 207.245L69.0352 205.985L67.3214 205.436L66.8185 200.396L67.0089 200.457L66.6928 199.136L67.0736 199.258L66.6964 195.478L66.2545 192.897L64.3503 192.288L64.0989 189.768L67.1456 190.743L66.7685 186.963L62.96 185.744L62.6438 184.423L65.1193 185.215L64.6164 180.176L64.8069 180.237L64.365 177.656L68.5543 178.997L68.4286 177.737L65.0009 176.64L64.7495 174.12L66.6537 174.729L66.4023 172.209L66.9735 172.392L66.8478 171.132L59.0405 168.632L58.7243 167.311L48.251 163.957L48.1253 162.697L57.0752 165.563L56.3819 160.462L68.3785 164.304L67.8756 159.264L64.6384 158.228L64.0708 154.387L48.8369 149.508L48.7112 148.248L69.277 154.834L68.5836 149.733L45.9232 142.476L45.6718 139.956L46.6239 140.261L46.3724 137.741L49.4192 138.717L48.7259 133.616L42.4419 131.603L42 129.022L67.3264 137.134L66.7588 133.293L48.4781 127.438L47.9105 123.597L62.1923 128.171L61.8151 124.391L58.197 123.232L58.0713 121.972L68.9255 125.448L68.4226 120.408L65.7566 119.555L65.5052 117.035L77.5019 120.877L77.2504 118.357L60.874 113.112L60.1806 108.011L52.7541 105.633L52.3769 101.853L76.3703 109.537L76.2446 108.277L73.1978 107.301L73.0721 106.041L64.1222 103.175L63.745 99.395L59.3653 97.9923L58.8624 92.9524L69.1452 96.2456L68.6423 91.2056L49.2191 84.9851L48.9677 82.4651L54.2995 84.1727L53.9223 80.3928L48.2096 78.5632L47.642 74.7223L53.5452 76.6128L52.9776 72.7719L59.8328 74.9674L58.9527 66.1475L55.7155 65.1107L55.0222 60.0098L49.3095 58.1802L49.1838 56.9202L50.7071 57.4081L50.0785 51.1082L49.6977 50.9862L49.3068 48.1776C49.223 47.3377 49.2491 46.6142 49.3852 46.0073C49.6913 44.6416 50.3273 43.6256 51.2931 42.9591C52.4198 42.1816 53.5545 41.9758 54.697 42.3417L80.2138 50.5138C82.2449 51.1643 83.7128 52.2036 84.6172 53.6316C85.6486 55.1003 86.3456 56.5433 86.7082 57.9604C86.953 58.6893 87.0709 59.3776 87.0617 60.0252L87.4015 63.0614L87.7824 63.1833L88.411 69.4833L86.8876 68.9954L87.2038 70.3164L92.9165 72.1459L93.4194 77.1859L96.6566 78.2226L97.5367 87.0425L90.6814 84.847L91.249 88.688L85.3459 86.7974L85.9135 90.6384L91.6262 92.4679L92.0034 96.2479L86.6715 94.5403L86.923 97.0603L106.156 103.22L106.849 108.321L96.5662 105.027L97.0691 110.067L101.449 111.47L101.826 115.25L110.586 118.055L110.712 119.315L113.758 120.291L113.884 121.551L90.0808 113.928L90.458 117.708L97.8845 120.086L98.3874 125.126L114.955 130.432L115.206 132.952L103.209 129.11L103.461 131.63L105.936 132.423L106.439 137.463L95.5848 133.986L95.7105 135.246L99.3286 136.405L99.7056 140.185L85.6144 135.672L85.9916 139.452L104.463 145.368L104.84 149.148L79.7039 141.098L79.9554 143.618L86.2393 145.63L86.9327 150.731L83.8859 149.755L84.1373 152.275L83.1852 151.97L83.4367 154.49L106.097 161.748L106.6 166.788L86.2247 160.262L86.3504 161.522L101.585 166.401L101.962 170.181L105.199 171.218L105.892 176.319L93.8953 172.476L94.3982 177.516L85.6387 174.711L85.7645 175.971L96.2378 179.325L96.3635 180.585L104.171 183.086L104.297 184.346L103.726 184.163L103.977 186.683L102.263 186.134L102.515 188.654L105.942 189.751L106.068 191.011L101.879 189.67L102.13 192.19L101.94 192.129L102.443 197.169L100.158 196.437L100.283 197.697L104.092 198.917L104.469 202.696L101.422 201.721L101.864 204.302L103.768 204.912L104.397 211.211L104.207 211.15L104.332 212.41L104.142 212.349L104.645 217.389L106.359 217.938L106.484 219.198L103.057 218.101L103.182 219.361L105.468 220.092L105.593 221.352L112.258 223.487L112.635 227.267L106.542 225.315L106.919 229.095L106.538 228.973L107.106 232.814L112.438 234.522L112.879 237.103L127.923 241.921L128.049 243.181L98.7229 233.789L98.8487 235.049L122.462 242.611Z" fill="#F500FF"/>
</g>
<defs>
<filter id="filter0_d_155_691" x="123.922" y="157" width="166" height="129" filterUnits="userSpaceOnUse" color-interpolation-filters="sRGB">
<feFlood flood-opacity="0" result="BackgroundImageFix"/>
<feColorMatrix in="SourceAlpha" type="matrix" values="0 0 0 0 0 0 0 0 0 0 0 0 0 0 0 0 0 0 127 0" result="hardAlpha"/>
<feOffset/>
<feGaussianBlur stdDeviation="21"/>
<feComposite in2="hardAlpha" operator="out"/>
<feColorMatrix type="matrix" values="0 0 0 0 0.960784 0 0 0 0 0 0 0 0 0 1 0 0 0 1 0"/>
<feBlend mode="normal" in2="BackgroundImageFix" result="effect1_dropShadow_155_691"/>
<feBlend mode="normal" in="SourceGraphic" in2="effect1_dropShadow_155_691" result="shape"/>
</filter>
<filter id="filter1_d_155_691" x="43.9219" y="213" width="278" height="121" filterUnits="userSpaceOnUse" color-interpolation-filters="sRGB">
<feFlood flood-opacity="0" result="BackgroundImageFix"/>
<feColorMatrix in="SourceAlpha" type="matrix" values="0 0 0 0 0 0 0 0 0 0 0 0 0 0 0 0 0 0 127 0" result="hardAlpha"/>
<feOffset/>
<feGaussianBlur stdDeviation="21"/>
<feComposite in2="hardAlpha" operator="out"/>
<feColorMatrix type="matrix" values="0 0 0 0 0.960784 0 0 0 0 0 0 0 0 0 1 0 0 0 1 0"/>
<feBlend mode="normal" in2="BackgroundImageFix" result="effect1_dropShadow_155_691"/>
<feBlend mode="normal" in="SourceGraphic" in2="effect1_dropShadow_155_691" result="shape"/>
</filter>
<filter id="filter2_d_155_691" x="205.763" y="2.9447" width="152.261" height="310.542" filterUnits="userSpaceOnUse" color-interpolation-filters="sRGB">
<feFlood flood-opacity="0" result="BackgroundImageFix"/>
<feColorMatrix in="SourceAlpha" type="matrix" values="0 0 0 0 0 0 0 0 0 0 0 0 0 0 0 0 0 0 127 0" result="hardAlpha"/>
<feOffset/>
<feGaussianBlur stdDeviation="21"/>
<feComposite in2="hardAlpha" operator="out"/>
<feColorMatrix type="matrix" values="0 0 0 0 0.960784 0 0 0 0 0 0 0 0 0 1 0 0 0 1 0"/>
<feBlend mode="normal" in2="BackgroundImageFix" result="effect1_dropShadow_155_691"/>
<feBlend mode="normal" in="SourceGraphic" in2="effect1_dropShadow_155_691" result="shape"/>
</filter>
<filter id="filter3_d_155_691" x="0" y="0.166016" width="170.049" height="310.172" filterUnits="userSpaceOnUse" color-interpolation-filters="sRGB">
<feFlood flood-opacity="0" result="BackgroundImageFix"/>
<feColorMatrix in="SourceAlpha" type="matrix" values="0 0 0 0 0 0 0 0 0 0 0 0 0 0 0 0 0 0 127 0" result="hardAlpha"/>
<feOffset/>
<feGaussianBlur stdDeviation="21"/>
<feComposite in2="hardAlpha" operator="out"/>
<feColorMatrix type="matrix" values="0 0 0 0 0.960784 0 0 0 0 0 0 0 0 0 1 0 0 0 1 0"/>
<feBlend mode="normal" in2="BackgroundImageFix" result="effect1_dropShadow_155_691"/>
<feBlend mode="normal" in="SourceGraphic" in2="effect1_dropShadow_155_691" result="shape"/>
</filter>
</defs>
</svg>
