<svg width="727" height="608" viewBox="0 0 727 608" fill="none" xmlns="http://www.w3.org/2000/svg">
<g filter="url(#filter0_d_155_670)">
<path d="M452.816 448.597H505.887V454.791H448.291C447.742 458.646 445.958 461.398 442.943 463.049H466.804C465.432 464.15 463.513 464.701 461.044 464.701H389.461C386.717 464.701 384.66 464.15 383.29 463.049H359.84C356.822 461.398 355.039 458.646 354.492 454.791H412.088V448.597H359.017V440.339H351.612V434.145H410.031V427.951H334.333V425.887H340.093V419.693H387.404V417.628H348.732V415.564H382.467V411.434H377.942V405.241H387.815V403.176H392.341V394.918H393.575V392.853H396.455V384.595H406.74V382.53H388.638V381.704C388.638 379.227 389.597 376.749 391.518 374.272H405.094C407.287 371.794 410.031 370.555 413.322 370.555H484.906C488.47 370.555 491.212 371.794 493.134 374.272H479.969C481.614 376.198 482.437 378.675 482.437 381.704V382.53H500.539V384.595H490.254V392.853H487.374V394.918H486.14V403.176H481.614V405.241H471.741V411.434H476.266V415.564H442.531V417.628H481.203V419.693H433.892V425.887H428.132V427.951H503.83V434.145H445.411V440.339H452.816V448.597Z" fill="#F500FF"/>
</g>
<g filter="url(#filter1_d_155_670)">
<path d="M568.202 522.864H549.095V530.763H554.306V534.712H555.464V542.611H559.517V544.586H562.991V548.535H571.676V554.46C571.676 555.249 571.485 555.907 571.097 556.434C570.327 560.384 567.238 563.016 561.833 564.333H556.622C554.306 564.86 552.378 565.123 550.832 565.123H200.543C199 565.123 197.069 564.86 194.753 564.333H199.964C194.562 563.016 191.28 560.384 190.122 556.434V548.535H181.437V544.586H177.963V542.611H173.91V534.712H172.752V530.763H167.541V522.864H186.648V520.889H191.28V516.94H166.962V514.965H176.805V509.041H174.489V501.142H175.068V498.378C175.068 497.061 175.262 496.008 175.647 495.218H172.173C174.877 490.216 179.894 487.714 187.227 487.714H537.516C545.621 487.714 550.641 490.216 552.569 495.218H555.464C555.852 495.746 556.043 496.271 556.043 496.798C556.431 497.325 556.622 497.851 556.622 498.378V501.142H556.043V509.041H558.359V514.965H548.516V516.94H572.834V520.889H568.202V522.864Z" fill="#F500FF"/>
</g>
<g filter="url(#filter2_d_155_670)">
<path d="M634.683 111.213L634.42 113.849L648.363 109.384L648.1 112.02L632.962 116.868L632.436 122.14L636.42 120.864L635.893 126.137L632.706 127.157L631.917 135.065L630.324 135.576L629.535 143.484L624.355 145.143L623.303 155.687L638.044 150.966L637.518 156.238L628.355 159.173L627.566 167.081L624.777 167.974L623.326 178.646L625.717 177.88L624.529 185.916L627.716 184.895L627.453 187.531L620.681 189.7L620.418 192.336L635.158 187.615L634.632 192.887L625.071 195.95L624.018 206.494L627.604 205.345L626.552 215.89L628.544 215.252L627.755 223.16L614.209 227.498L613.285 232.898L620.456 230.601L619.667 238.509L605.325 243.102L604.273 253.646L623.794 247.395L623.005 255.303L617.427 257.089L615.977 267.761L617.172 267.378L616.383 275.286L615.984 275.414L615.06 280.813L615.458 280.686L614.669 288.594L614.008 291.358L615.601 290.847L615.075 296.119L622.246 293.823L621.194 304.367L607.649 308.705L606.597 319.249L609.385 318.356L607.935 329.028L633.83 320.734L632.906 326.134L636.89 324.858L635.838 335.402L611.137 343.313L610.611 348.585L601.847 351.392L601.321 356.664L606.101 355.133L605.049 365.677L607.041 365.039L606.515 370.311L605.32 370.694L604.531 378.602L606.124 378.092L604.674 388.764L605.471 388.508L605.208 391.144L593.256 394.972L592.73 400.244L592.331 400.372L591.279 410.916L607.613 405.685L606.426 413.72L602.84 414.869L602.577 417.505L600.187 418.27L599.135 428.815L598.736 428.942L598.21 434.214L599.007 433.959L597.556 444.631L601.939 443.227L601.676 445.863L601.277 445.991L600.488 453.899L595.708 455.43L595.445 458.066L587.078 460.746L586.552 466.018L583.764 466.911L583.238 472.183L587.62 470.779L586.958 473.543L601.3 468.95L600.774 474.222L591.611 477.157L590.822 485.065L592.814 484.427L592.736 485.983L591.627 492.462L591.228 492.59C590.592 494.835 589.621 496.848 588.312 498.628L603.052 493.907C601.743 495.686 600.593 496.907 599.602 497.564L587.65 501.391C586.004 502.939 583.72 504.181 580.8 505.116L528.611 521.831C527.017 522.341 525.448 522.333 523.908 521.806L535.86 517.978C535.257 517.832 534.282 517.292 532.936 516.363L518.195 521.083C516.705 519.519 515.819 518.101 515.534 516.832L515.107 514.927C514.823 513.658 514.768 512.145 514.943 510.387L515.128 509.307L512.738 510.072L513.527 502.164L522.69 499.229L523.614 493.83L509.272 498.423L509.535 495.787L505.552 497.063L506.078 491.791L508.468 491.025L508.994 485.753L517.759 482.946L518.022 480.31L522.404 478.907L523.193 470.999L523.591 470.871L523.854 468.235L519.871 469.511L520.923 458.967L520.126 459.222L520.652 453.95L521.05 453.822L522.102 443.278L524.493 442.512L524.756 439.876L528.74 438.6L529.529 430.692L513.195 435.923L514.247 425.379L514.645 425.252L515.172 419.98L527.123 416.152L527.386 413.516L526.589 413.771L528.04 403.099L526.446 403.61L527.235 395.702L528.431 395.319L528.957 390.047L526.566 390.812L528.017 380.14L523.236 381.672L523.762 376.399L532.527 373.593L533.053 368.32L557.355 360.537L558.407 349.993L554.821 351.142L555.347 345.869L529.851 354.035L530.903 343.491L528.114 344.384L529.564 333.712L542.711 329.502L543.763 318.958L536.592 321.254L537.119 315.982L535.923 316.365L537.502 300.549L537.9 300.421L538.689 292.513L537.494 292.896L538.944 282.224L544.522 280.438L545.311 272.53L525.79 278.782L526.842 268.237L540.786 263.772L541.973 255.736L534.802 258.033L535.328 252.761L549.272 248.295L550.061 240.387L547.671 241.152L549.121 230.481L545.137 231.756L546.588 221.085L556.149 218.023L556.675 212.75L541.935 217.471L542.198 214.835L548.572 212.794L548.835 210.158L546.046 211.051L546.835 203.143L544.844 203.781L545.896 193.236L548.684 192.343L549.474 184.435L558.636 181.501L559.561 176.101L544.422 180.949L545.474 170.405L550.653 168.747L551.442 160.838L553.036 160.328L553.825 152.42L557.012 151.399L557.538 146.127L553.554 147.403L554.08 142.131L569.219 137.283L569.482 134.647L555.539 139.112L555.802 136.476L539.069 141.835L539.595 136.563L550.75 132.99L552.201 122.319L562.957 118.874L563.22 116.238L553.659 119.3L554.711 108.756L545.15 111.818L545.413 109.182L558.161 105.099L558.687 99.8266L552.712 101.741L553.238 96.4684L546.465 98.6374L547.254 90.7293L557.214 87.5396L557.662 83.8236C557.978 82.7015 558.163 81.6216 558.217 80.5838C558.462 79.1442 558.878 77.8201 559.461 76.6126L553.485 78.5264C554.314 75.8794 555.747 73.3789 557.782 71.0261C559.816 68.6733 562.559 66.9445 566.013 65.8383L619.397 48.7413C623.911 47.2957 627.438 49.0581 629.976 54.0292L635.554 52.243C635.961 52.793 636.272 53.5439 636.486 54.4962C636.77 55.766 636.824 57.28 636.65 59.037L636.095 62.2768L626.534 65.339L625.346 73.3747L632.517 71.0781L631.593 76.4778L637.569 74.5639L637.043 79.836L624.294 83.9189L624.031 86.5549L633.592 83.4928L632.54 94.0369L642.102 90.9748L641.839 93.6108L631.082 97.0557L629.631 107.728L618.477 111.3L617.951 116.572L634.683 111.213Z" fill="#F500FF"/>
</g>
<g filter="url(#filter3_d_155_670)">
<path d="M243.407 461.795L244.459 472.339L205.815 459.963L206.604 467.871L211.385 469.402L211.648 472.038L213.241 472.549L214.03 480.457L214.827 480.712L215.879 491.256L216.278 491.384L217.728 502.056L203.386 497.462L203.649 500.098L220.78 505.585L221.228 509.301C221.404 511.059 221.349 512.572 221.064 513.841L220.239 515.618L190.359 506.049C189.117 509.053 187.255 511.008 184.774 511.916L179.595 510.257C178.319 510.869 176.752 510.878 174.893 510.282L122.704 493.568C120.048 492.718 117.764 491.476 115.853 489.843L121.032 491.502C119.315 490.271 117.971 488.651 116.999 486.637C116.221 485.028 115.443 483.416 114.665 481.807L144.545 491.376C143.909 489.132 143.54 486.972 143.435 484.897L142.696 480.577L125.963 475.218L125.7 472.582L139.644 477.048L138.592 466.504L138.193 466.376L136.743 455.704L136.344 455.577L135.555 447.669L133.563 447.031L133.3 444.395L128.52 442.864L127.731 434.956L166.374 447.332L165.322 436.787L115.922 420.966L115.659 418.33L177.409 438.107L177.146 435.471L145.275 425.264L144.749 419.991L133.196 416.291L132.407 408.383L132.805 408.511L132.016 400.603L144.764 404.686L143.975 396.777L130.032 392.312L129.37 389.548L124.988 388.145L124.725 385.509L131.896 387.805L131.633 385.169L128.047 384.021L126.995 373.477L127.394 373.604L126.732 370.841L127.529 371.096L126.74 363.188L125.815 357.788L121.832 356.512L121.305 351.24L127.68 353.281L126.891 345.373L118.923 342.822L118.261 340.058L123.44 341.717L122.388 331.172L122.787 331.3L121.862 325.9L130.627 328.707L130.364 326.071L123.193 323.775L122.667 318.503L126.651 319.778L126.124 314.506L127.32 314.889L127.057 312.253L110.723 307.022L110.061 304.258L88.1498 297.241L87.8867 294.605L106.611 300.602L105.161 289.93L130.259 297.968L129.207 287.424L122.434 285.255L121.247 277.219L89.3756 267.012L89.1126 264.376L132.139 278.155L130.688 267.484L83.2798 252.301L82.7537 247.028L84.7457 247.666L84.2196 242.394L90.5938 244.436L89.1433 233.764L75.9964 229.553L75.072 224.154L128.058 241.123L126.87 233.087L88.6249 220.839L87.4374 212.803L117.317 222.372L116.528 214.464L108.958 212.04L108.695 209.404L131.403 216.677L130.351 206.132L124.774 204.346L124.248 199.074L149.346 207.112L148.82 201.84L114.559 190.867L113.108 180.196L97.5709 175.22L96.7818 167.312L146.979 183.388L146.716 180.752L140.342 178.71L140.079 176.074L121.354 170.078L120.565 162.169L111.402 159.235L110.35 148.691L131.863 155.581L130.811 145.036L90.1752 132.022L89.6491 126.75L100.804 130.323L100.015 122.415L88.0632 118.587L86.8757 110.551L99.2258 114.506L98.0383 106.471L112.38 111.064L110.539 92.6116L103.766 90.4426L102.316 79.7708L90.3642 75.9431L90.1012 73.3071L93.2883 74.3278L91.9732 61.1476L91.1764 60.8924L90.3587 55.0165C90.1833 53.2592 90.238 51.7456 90.5226 50.4758C91.1631 47.6188 92.4936 45.4931 94.5142 44.0987C96.8715 42.472 99.2453 42.0414 101.636 42.807L155.02 59.904C159.269 61.2649 162.34 63.4392 164.232 66.4269C166.39 69.4996 167.848 72.5184 168.607 75.4833C169.119 77.0083 169.366 78.4482 169.347 79.8031L170.058 86.1551L170.854 86.4103L172.169 99.5905L168.982 98.5698L169.644 101.333L181.595 105.161L182.648 115.705L189.42 117.874L191.261 136.327L176.919 131.733L178.107 139.769L165.757 135.814L166.944 143.85L178.896 147.677L179.685 155.585L168.53 152.013L169.056 157.285L209.294 170.172L210.744 180.843L189.231 173.953L190.283 184.498L199.446 187.432L200.235 195.34L218.561 201.209L218.824 203.845L225.199 205.887L225.462 208.523L175.663 192.574L176.452 200.482L191.989 205.458L193.041 216.003L227.701 227.103L228.227 232.375L203.129 224.337L203.655 229.609L208.834 231.268L209.886 241.812L187.178 234.539L187.441 237.175L195.01 239.599L195.799 247.508L166.319 238.066L167.108 245.974L205.751 258.35L206.541 266.258L153.953 249.417L154.479 254.689L167.626 258.899L169.077 269.571L162.702 267.529L163.228 272.801L161.236 272.164L161.763 277.436L209.171 292.619L210.223 303.163L167.595 289.511L167.858 292.147L199.73 302.354L200.519 310.262L207.291 312.431L208.742 323.103L183.643 315.065L184.695 325.609L166.369 319.74L166.633 322.376L188.544 329.393L188.807 332.029L205.141 337.261L205.404 339.897L204.209 339.514L204.735 344.786L201.149 343.638L201.675 348.91L208.846 351.206L209.11 353.842L200.345 351.035L200.871 356.308L200.473 356.18L201.525 366.724L196.744 365.193L197.007 367.829L204.975 370.381L205.764 378.289L199.39 376.248L200.314 381.647L204.298 382.923L205.613 396.103L205.215 395.976L205.478 398.612L205.08 398.484L206.132 409.028L209.717 410.177L209.98 412.813L202.809 410.516L203.072 413.152L207.853 414.683L208.116 417.319L222.06 421.785L222.849 429.693L210.1 425.61L210.889 433.518L210.093 433.263L211.28 441.299L222.435 444.871L223.359 450.271L254.832 460.351L255.095 462.987L193.743 443.338L194.006 445.974L243.407 461.795Z" fill="#F500FF"/>
</g>
<defs>
<filter id="filter0_d_155_670" x="292.333" y="328.555" width="255.554" height="178.146" filterUnits="userSpaceOnUse" color-interpolation-filters="sRGB">
<feFlood flood-opacity="0" result="BackgroundImageFix"/>
<feColorMatrix in="SourceAlpha" type="matrix" values="0 0 0 0 0 0 0 0 0 0 0 0 0 0 0 0 0 0 127 0" result="hardAlpha"/>
<feOffset/>
<feGaussianBlur stdDeviation="21"/>
<feComposite in2="hardAlpha" operator="out"/>
<feColorMatrix type="matrix" values="0 0 0 0 0.960784 0 0 0 0 0 0 0 0 0 1 0 0 0 1 0"/>
<feBlend mode="normal" in2="BackgroundImageFix" result="effect1_dropShadow_155_670"/>
<feBlend mode="normal" in="SourceGraphic" in2="effect1_dropShadow_155_670" result="shape"/>
</filter>
<filter id="filter1_d_155_670" x="124.962" y="445.714" width="489.872" height="161.409" filterUnits="userSpaceOnUse" color-interpolation-filters="sRGB">
<feFlood flood-opacity="0" result="BackgroundImageFix"/>
<feColorMatrix in="SourceAlpha" type="matrix" values="0 0 0 0 0 0 0 0 0 0 0 0 0 0 0 0 0 0 127 0" result="hardAlpha"/>
<feOffset/>
<feGaussianBlur stdDeviation="21"/>
<feComposite in2="hardAlpha" operator="out"/>
<feColorMatrix type="matrix" values="0 0 0 0 0.960784 0 0 0 0 0 0 0 0 0 1 0 0 0 1 0"/>
<feBlend mode="normal" in2="BackgroundImageFix" result="effect1_dropShadow_155_670"/>
<feBlend mode="normal" in="SourceGraphic" in2="effect1_dropShadow_155_670" result="shape"/>
</filter>
<filter id="filter2_d_155_670" x="463.552" y="6.25272" width="226.812" height="557.955" filterUnits="userSpaceOnUse" color-interpolation-filters="sRGB">
<feFlood flood-opacity="0" result="BackgroundImageFix"/>
<feColorMatrix in="SourceAlpha" type="matrix" values="0 0 0 0 0 0 0 0 0 0 0 0 0 0 0 0 0 0 127 0" result="hardAlpha"/>
<feOffset/>
<feGaussianBlur stdDeviation="21"/>
<feComposite in2="hardAlpha" operator="out"/>
<feColorMatrix type="matrix" values="0 0 0 0 0.960784 0 0 0 0 0 0 0 0 0 1 0 0 0 1 0"/>
<feBlend mode="normal" in2="BackgroundImageFix" result="effect1_dropShadow_155_670"/>
<feBlend mode="normal" in="SourceGraphic" in2="effect1_dropShadow_155_670" result="shape"/>
</filter>
<filter id="filter3_d_155_670" x="33.0723" y="0.439514" width="264.023" height="557.179" filterUnits="userSpaceOnUse" color-interpolation-filters="sRGB">
<feFlood flood-opacity="0" result="BackgroundImageFix"/>
<feColorMatrix in="SourceAlpha" type="matrix" values="0 0 0 0 0 0 0 0 0 0 0 0 0 0 0 0 0 0 127 0" result="hardAlpha"/>
<feOffset/>
<feGaussianBlur stdDeviation="21"/>
<feComposite in2="hardAlpha" operator="out"/>
<feColorMatrix type="matrix" values="0 0 0 0 0.960784 0 0 0 0 0 0 0 0 0 1 0 0 0 1 0"/>
<feBlend mode="normal" in2="BackgroundImageFix" result="effect1_dropShadow_155_670"/>
<feBlend mode="normal" in="SourceGraphic" in2="effect1_dropShadow_155_670" result="shape"/>
</filter>
</defs>
</svg>
