<svg width="36" height="33" viewBox="0 0 36 33" fill="none" xmlns="http://www.w3.org/2000/svg">
<path d="M4.69345 0.204082C3.12314 1.15416 0.0293432 4.77583 0 5.72561V7.29776C0 9.29061 1.82808 11.0422 3.48788 11.0422C5.48087 11.0422 7.1414 9.35908 7.14155 7.36145C7.14155 9.35908 8.74516 11.0422 10.7383 11.0422C12.7316 11.0422 14.2837 9.35908 14.2837 7.36145C14.2837 9.35908 15.9888 11.0422 17.982 11.0422H18.018C20.0113 11.0422 21.7165 9.35908 21.7165 7.36145C21.7165 9.35908 23.2687 11.0422 25.2617 11.0422C27.2548 11.0422 28.8585 9.35908 28.8585 7.36145C28.8585 9.35908 30.5193 11.0422 32.5121 11.0422C34.1719 11.0422 36 9.29091 36 7.29776V5.72561C35.9707 4.77568 32.8769 1.15386 31.3069 0.204082C26.4262 0.0294651 23.0426 -0.000734157 17.9999 1.33482e-05C12.9572 0.000461852 6.08241 0.080744 4.69315 0.204082H4.69345ZM14.2584 10.1036C14.0679 10.4421 13.8318 10.7518 13.5571 11.0238C12.8048 11.7734 11.7735 12.238 10.6366 12.238C9.5426 12.2391 8.49181 11.8029 7.70993 11.0232C7.43733 10.7511 7.23017 10.4602 7.04046 10.1214L7.03958 10.122C6.85002 10.4614 6.58594 10.7521 6.31275 11.0245C5.53056 11.8037 4.47989 12.2395 3.38606 12.2385C3.24903 12.2385 3.10642 12.1999 2.9911 12.1595C2.83089 13.8597 2.76325 15.4844 2.73933 16.6691L2.73904 16.6758C2.73611 17.2774 2.73317 17.7721 2.73024 18.4594C2.76105 22.0265 2.38355 30.0209 4.27369 31.9852C7.20273 32.6811 12.5925 32.9981 17.9997 33H18.0006C23.4077 32.9981 28.7974 32.6811 31.7265 31.9852C33.6166 30.0207 33.2391 22.0263 33.2699 18.4592C33.2667 17.7721 33.264 17.2774 33.2611 16.6757L33.2607 16.6689C33.2369 15.484 33.1693 13.8594 33.009 12.1592C32.8937 12.1996 32.7513 12.2382 32.6141 12.2382C31.5203 12.2392 30.4696 11.8034 29.6874 11.0242C29.4142 10.7518 29.1501 10.4612 28.9604 10.1217L28.9595 10.1211C28.7697 10.4599 28.5627 10.7509 28.2901 11.0229C27.5082 11.8025 26.4575 12.2387 25.3635 12.2376C24.2268 12.2376 23.1954 11.7726 22.443 11.0232C22.1683 10.7512 21.9323 10.4415 21.7417 10.103C21.5532 10.4411 21.3193 10.7508 21.0469 11.0232C20.2648 11.8028 19.2139 12.2388 18.1199 12.2377C18.0803 12.2377 18.0406 12.2359 18.001 12.2347H18C17.9604 12.2359 17.9208 12.2377 17.8807 12.2377C16.7867 12.2388 15.7358 11.8028 14.9537 11.0233C14.6813 10.751 14.4474 10.4413 14.2589 10.1032L14.2584 10.1036ZM11.2528 14.0639L11.2525 14.0654H11.2547C12.445 14.0679 13.5024 14.0654 14.8126 15.5224C15.8437 15.4122 16.9212 15.3572 17.9996 15.3589H18.0004C19.0788 15.3574 20.1563 15.4122 21.1876 15.5224C22.4977 14.0652 23.5551 14.0678 24.7454 14.0654H24.7475L24.7472 14.0639C25.3095 14.0639 27.5591 14.0639 29.1266 18.55L30.8104 24.7042C32.058 29.2825 30.4109 29.3945 28.3562 29.3985C25.3092 29.283 23.6222 27.0282 23.6222 24.7737C21.9355 25.0554 19.9679 25.1962 18.0003 25.1963H17.9994C16.0317 25.1963 14.064 25.0554 12.3775 24.7737C12.3775 27.0282 10.6903 29.283 7.64346 29.3985C5.58885 29.3945 3.94182 29.2827 5.18949 24.7042L6.87364 18.5501C8.44116 14.064 10.6908 14.064 11.2531 14.064L11.2528 14.0639ZM17.9996 17.5894V17.5903C17.9966 17.5933 14.7919 20.5923 14.2158 21.659L16.3144 21.5733V23.4382C16.3144 23.5255 17.1565 23.4899 17.9996 23.4502H18.0004C18.8432 23.4899 19.6855 23.5255 19.6855 23.4382V21.5733L21.7841 21.659C21.2078 20.5923 18.0003 17.5903 18.0003 17.5903V17.5894L17.9999 17.5897L17.9996 17.5894Z" fill="gray"/>
</svg>
