<svg xmlns="http://www.w3.org/2000/svg" version="1.1" xmlns:xlink="http://www.w3.org/1999/xlink" xmlns:svgjs="http://svgjs.dev/svgjs" width="1920" height="1080" preserveAspectRatio="none" viewBox="0 0 1920 1080">
    <g mask="url(&quot;#SvgjsMask1011&quot;)" fill="none">
        <path d="M278.337,598.168C398.412,599.057,521.837,557.576,581.705,453.487C641.435,349.639,614.411,222.635,553.75,119.328C493.983,17.544,396.357,-61.357,278.337,-63.153C157.449,-64.993,48.455,6.01,-11.99,110.717C-72.429,215.414,-79.208,345.188,-17.347,449.051C43.195,550.698,160.029,597.292,278.337,598.168" fill="rgba(245, 0, 255, 1)" class="triangle-float2"></path>
        <path d="M147.018,323.391C216.417,324.431,289.056,309.02,327.355,251.136C369.406,187.581,378.401,101.217,335.847,37.998C296.623,-20.274,217.238,-18.555,147.018,-16.776C81.161,-15.108,10.038,-8.025,-25.937,47.163C-64.706,106.636,-61.866,185.695,-24.191,245.866C11.443,302.777,79.88,322.385,147.018,323.391" fill="rgba(245, 0, 255, 1)" class="triangle-float1"></path>
        <path d="M155.212,350.739C226.483,352.145,297.406,319.588,331.28,256.865C363.805,196.64,343.085,125.778,308.649,66.625C274.482,7.934,222.991,-41.328,155.212,-45.581C79.88,-50.308,1.035,-20.948,-35.645,45.02C-71.552,109.599,-48.349,187.467,-9.219,250.146C27.251,308.564,86.358,349.38,155.212,350.739" fill="rgba(245, 0, 255, 1)" class="triangle-float3"></path>
        <path d="M1797.93,252.352C1853.091,253.873,1902.444,217.932,1927.972,169.01C1951.75,123.443,1944.197,68.753,1916.241,25.623C1890.701,-13.78,1844.817,-29.081,1797.93,-31.618C1744.722,-34.497,1682.895,-33.997,1655.149,11.495C1626.749,58.06,1651.927,115.249,1679.74,162.167C1706.825,207.856,1744.836,250.888,1797.93,252.352" fill="rgba(245, 0, 255, 1)" class="triangle-float2"></path>
        <path d="M1845.115,307.584C1904.834,305.248,1960.987,277.024,1990.683,225.159C2020.199,173.607,2015.726,111.18,1987.492,58.914C1957.631,3.636,1907.933,-45.409,1845.115,-44.311C1783.622,-43.236,1742.433,10.82,1711.107,63.746C1678.956,118.066,1647.991,182.055,1678.393,237.373C1709.522,294.014,1780.533,310.11,1845.115,307.584" fill="rgba(245, 0, 255, 1)" class="triangle-float1"></path>
        <path d="M1813.943,254.997C1866.235,254.995,1913.139,227.499,1941.807,183.766C1973.945,134.74,1993.492,73.874,1966.928,21.617C1938.243,-34.813,1877.217,-69.653,1813.943,-67.772C1753.492,-65.975,1703.351,-23.642,1675.944,30.269C1651.037,79.262,1657.304,136.94,1686.064,183.775C1713.429,228.339,1761.648,254.999,1813.943,254.997" fill="rgba(245, 0, 255, 1)" class="triangle-float1"></path>
        <path d="M56.423,1021.759C93.096,1022.385,126.478,1003.165,146.44,972.395C168.542,938.327,180.457,895.668,161.538,859.735C141.531,821.735,99.348,800.104,56.423,801.425C15.582,802.681,-19.636,829.403,-38.057,865.875C-54.805,899.034,-47.679,937.64,-28.424,969.409C-9.962,999.869,20.81,1021.151,56.423,1021.759" fill="rgba(245, 0, 255, 1)" class="triangle-float3"></path>
        <path d="M155.306,1211.995C223.511,1210.933,282.81,1171.632,319.089,1113.866C358.199,1051.592,379.36,974.794,345.164,909.692C308.906,840.663,233.269,800.862,155.306,802.057C79.317,803.222,11.65,848.638,-24.729,915.363C-59.595,979.312,-55.345,1056.842,-17.554,1119.107C18.822,1179.041,85.205,1213.086,155.306,1211.995" fill="rgba(245, 0, 255, 1)" class="triangle-float1"></path>
        <path d="M174.236,1241.991C253.803,1241.884,343.088,1227.528,380.14,1157.115C415.772,1089.4,370.842,1012.884,328.242,949.321C291.78,894.916,239.45,855.919,174.236,849.885C95.031,842.556,5.816,849.363,-38.555,915.381C-86.855,987.245,-79.892,1085.12,-32.626,1157.668C10.94,1224.537,94.427,1242.098,174.236,1241.991" fill="rgba(245, 0, 255, 1)" class="triangle-float3"></path>
        <path d="M1889.948,1297.6C1975.472,1295.981,2048.298,1240.118,2089.353,1165.075C2128.701,1093.153,2127.259,1007.574,2087.992,935.608C2046.883,860.266,1975.739,802.159,1889.948,799.622C1800.006,796.963,1715.111,845.106,1670.525,923.264C1626.321,1000.753,1631.908,1095.919,1677.021,1172.882C1721.603,1248.94,1801.803,1299.269,1889.948,1297.6" fill="rgba(245, 0, 255, 1)" class="triangle-float2"></path>
        <path d="M1923.233,1333.88C2008.321,1330.682,2072.53,1267.717,2116.993,1195.1C2164.139,1118.1,2206.824,1023.746,2160.619,946.178C2115.027,869.639,2012.155,864.373,1923.233,869.82C1845.644,874.573,1773.644,907.226,1731.39,972.473C1684.791,1044.429,1662.297,1134.959,1702.491,1210.679C1744.836,1290.452,1832.982,1337.272,1923.233,1333.88" fill="rgba(245, 0, 255, 1)" class="triangle-float1"></path>
        <path d="M1810.908,1113.591C1862.513,1111.914,1911.608,1088.666,1937.598,1044.053C1963.759,999.147,1962.515,943.385,1936.158,898.595C1910.175,854.441,1862.127,829.935,1810.908,828.763C1757.377,827.538,1703.961,847.384,1675.322,892.627C1644.697,941.008,1639.159,1003.974,1669.106,1052.778C1697.935,1099.761,1755.814,1115.381,1810.908,1113.591" fill="rgba(245, 0, 255, 1)" class="triangle-float3"></path>
    </g>
    <defs>
        <mask id="SvgjsMask1011">
            <rect width="1920" height="1080" fill="#ffffff"></rect>
        </mask>
        <style>
            @keyframes float1 {
                    0%{transform: translate(0, 0)}
                    50%{transform: translate(-10px, 0)}
                    100%{transform: translate(0, 0)}
                }

                .triangle-float1 {
                    animation: float1 5s infinite;
                }

                @keyframes float2 {
                    0%{transform: translate(0, 0)}
                    50%{transform: translate(-5px, -5px)}
                    100%{transform: translate(0, 0)}
                }

                .triangle-float2 {
                    animation: float2 4s infinite;
                }

                @keyframes float3 {
                    0%{transform: translate(0, 0)}
                    50%{transform: translate(0, -10px)}
                    100%{transform: translate(0, 0)}
                }

                .triangle-float3 {
                    animation: float3 6s infinite;
                }
        </style>
    </defs>
</svg>