<svg width="12" height="13" viewBox="0 0 12 13" fill="none" xmlns="http://www.w3.org/2000/svg">
<path d="M7.59703 4.19263C7.34874 4.35814 6.56249 4.78373 6.44425 4.89604C6.35386 4.98343 6.23303 5.03229 6.10729 5.03229C5.98154 5.03229 5.86072 4.98343 5.77032 4.89604C5.65209 4.80146 4.86584 4.35223 4.61755 4.19263C4.36926 4.03304 4.35152 3.77886 4.66484 3.64882C5.12281 3.44984 5.61682 3.34716 6.11616 3.34716C6.6155 3.34716 7.1095 3.44984 7.56747 3.64882C7.85714 3.77295 7.86897 4.00348 7.56747 4.18081M11.8357 8.48399C11.2924 7.254 10.5336 6.13099 9.59517 5.16794C9.29542 4.85665 9.07978 4.47424 8.96854 4.05668C8.90942 3.86162 8.86804 3.66064 8.82666 3.46558C8.75268 2.92862 8.61372 2.40263 8.41284 1.89918C8.2245 1.45628 7.90732 1.08023 7.5025 0.819875C7.09769 0.559516 6.62393 0.426872 6.14276 0.439168C5.65743 0.421371 5.17754 0.54628 4.76249 0.798431C4.34744 1.05058 4.01546 1.4189 3.80765 1.8578C3.68552 2.10994 3.59421 2.37588 3.53571 2.64987C3.43522 3.0991 3.34654 3.56607 3.24013 4.02121C3.14846 4.40961 2.94256 4.76166 2.64896 5.03199C1.71027 5.94817 0.934589 7.0176 0.355236 8.19435C0.268826 8.36175 0.195691 8.53568 0.136504 8.71452C0.0241827 9.10464 0.307943 9.37655 0.727671 9.30562C0.987785 9.25242 1.2479 9.19922 1.49619 9.12238C1.74448 9.04553 1.83315 9.12238 1.89227 9.32926C2.06704 9.94066 2.38585 10.5013 2.82197 10.9641C3.25809 11.4269 3.79881 11.7784 4.39882 11.9892C6.83442 12.9113 9.67794 11.5991 10.3105 9.28197C10.3519 9.12238 10.411 9.06327 10.5883 9.12238C10.8603 9.20513 11.1381 9.26424 11.416 9.32926C11.477 9.34707 11.5412 9.351 11.6039 9.34076C11.6666 9.33052 11.7262 9.30638 11.7783 9.2701C11.8305 9.23382 11.8739 9.18633 11.9053 9.1311C11.9367 9.07588 11.9553 9.01433 11.9598 8.95096C11.9668 8.80131 11.9342 8.65246 11.8653 8.51946" fill="white"/>
</svg>
