<svg width="277" height="215" viewBox="0 0 277 215" fill="none" xmlns="http://www.w3.org/2000/svg">
<path fill-rule="evenodd" clip-rule="evenodd" d="M20.779 183C-1.01095 176.77 -4.71095 163.91 5.24905 156.5C14.459 149.63 30.119 144.5 30.119 144.5L94.789 121.4V147.72L48.249 164.45C40.019 167.45 38.759 171.61 45.449 173.8C52.139 175.99 64.229 175.37 72.449 172.41L94.769 164.27V187.82C93.359 188.08 91.769 188.33 90.319 188.57C67.0299 192.368 43.1667 190.457 20.779 183ZM157.219 185.74L229.789 159.84C238.029 156.84 239.289 152.7 232.599 150.51C225.909 148.32 213.819 148.94 205.599 151.91L157.239 168.97V141.78L160.039 140.83C170.965 137.295 182.229 134.906 193.649 133.7C213.299 131.53 237.359 134 256.239 141.16C277.529 147.9 279.929 157.83 274.519 164.67C269.109 171.51 255.849 176.38 255.849 176.38L157.239 211.87L157.219 185.74ZM165.709 17.17C203.919 30.36 216.869 46.78 216.869 83.78C216.869 119.83 194.729 133.5 166.609 119.85V52.62C166.609 44.74 165.169 37.48 157.809 35.42C152.169 33.6 148.669 38.87 148.669 46.75V215L103.549 200.6V0C122.739 3.58 150.689 12 165.709 17.13V17.17Z" fill="white"/>
</svg>
