<svg width="14" height="14" viewBox="0 0 14 14" fill="none" xmlns="http://www.w3.org/2000/svg">
<path d="M3.14224 1.00659C1.87764 1.2327 0.860187 2.16865 0.539438 3.39907C0.423758 3.84339 0.415871 4.10367 0.429016 7.55041C0.436904 10.7158 0.439533 10.7894 0.492115 11.034C0.783943 12.3511 1.7199 13.2897 3.05022 13.5999C3.22374 13.6394 3.44458 13.6473 4.86692 13.6552C6.33921 13.6657 6.49169 13.663 6.53113 13.6236C6.57057 13.5842 6.5732 13.0768 6.5732 7.3243C6.5732 3.05992 6.56531 1.05129 6.54691 1.01448C6.52061 0.967157 6.47592 0.964528 4.93527 0.967157C3.68383 0.969787 3.30787 0.977674 3.14224 1.00659ZM5.52156 7.31642V12.643L4.45152 12.6298C3.46561 12.6193 3.36045 12.614 3.16327 12.5641C2.3167 12.3459 1.68835 11.6939 1.5122 10.8447C1.45436 10.5791 1.45436 4.03794 1.50957 3.77766C1.66732 3.03888 2.17999 2.4263 2.87144 2.15025C3.21848 2.01091 3.37885 1.99513 4.5041 1.9925L5.52156 1.98987V7.31642Z" fill="white"/>
<path d="M3.36832 3.59631C3.20269 3.62786 2.95029 3.75406 2.81621 3.87236C2.54015 4.11161 2.40344 4.45076 2.42447 4.85038C2.43499 5.05808 2.44813 5.11329 2.53227 5.28155C2.65583 5.53657 2.8425 5.72324 3.09752 5.84943C3.27367 5.93619 3.31837 5.94671 3.5471 5.9546C3.7548 5.96248 3.82841 5.9546 3.96775 5.90727C4.53827 5.71535 4.88268 5.16061 4.7854 4.59273C4.67235 3.91706 4.03085 3.46486 3.36832 3.59631Z" fill="white"/>
<path d="M7.85336 0.982958C7.84285 0.990845 7.83496 3.84078 7.83496 7.31644C7.83496 13.0505 7.83759 13.6315 7.87703 13.6473C7.94801 13.6736 9.98819 13.6631 10.2406 13.6368C11.308 13.5158 12.2492 12.8665 12.7619 11.9016C12.8276 11.778 12.9144 11.5703 12.9591 11.4415C13.1247 10.9472 13.1194 11.0787 13.1194 7.30066C13.1194 4.2851 13.1142 3.83552 13.0774 3.6436C12.8171 2.27384 11.7733 1.24061 10.401 1.00399C10.2169 0.972441 9.93298 0.964554 9.01805 0.964554C8.38707 0.964554 7.86125 0.972441 7.85336 0.982958ZM10.6612 6.70912C11.0714 6.81691 11.4079 7.12977 11.5446 7.5294C11.6314 7.77653 11.6287 8.13935 11.542 8.36545C11.3816 8.78084 11.0661 9.07267 10.6612 9.18047C10.004 9.35136 9.30463 8.95436 9.1127 8.30235C9.05486 8.10254 9.05749 7.76601 9.12322 7.56095C9.3204 6.91682 10.004 6.53823 10.6612 6.70912Z" fill="white"/>
</svg>
