<svg width="373" height="373" viewBox="0 0 373 373" fill="none" xmlns="http://www.w3.org/2000/svg">
<path d="M167.617 371.807C138.934 369.06 109.894 358.759 84.948 342.483C64.0437 328.844 59.323 323.237 59.323 312.048C59.323 289.573 84.035 250.208 126.316 205.332C150.328 179.846 183.776 149.972 187.393 150.781C194.424 152.354 250.644 207.192 271.69 233.006C304.97 273.828 320.271 307.252 312.498 322.153C306.589 333.481 269.925 355.62 242.99 364.126C220.79 371.136 191.634 374.107 167.617 371.807ZM31.0893 288.68C13.7183 262.031 4.94188 235.795 0.704572 197.848C-0.694598 185.318 -0.193208 178.151 3.88172 152.433C8.96054 120.379 27.2147 83.2968 49.1488 60.4756C58.4908 50.7558 59.3251 50.519 70.7123 54.3551C84.5406 59.0135 99.3082 69.2125 122.211 89.9217L135.573 102.005L128.276 110.969C94.4038 152.581 58.6466 211.566 45.1708 248.058C37.8448 267.897 34.8899 287.811 38.0421 296.102C40.1703 301.699 38.2155 299.613 31.0893 288.68ZM336.005 293.213C337.721 284.836 335.55 269.45 330.463 253.933C319.447 220.327 282.624 157.809 248.811 115.302L238.166 101.921L249.682 91.3473C264.719 77.5406 275.158 69.2734 286.422 62.2527C295.311 56.7126 308.014 51.8082 313.474 51.8082C316.84 51.8082 328.691 64.1069 338.258 77.5288C353.075 98.3165 363.976 123.516 369.498 149.748C373.067 166.698 373.364 202.98 370.073 219.888C367.372 233.764 361.67 251.763 356.107 263.97C351.939 273.116 341.572 290.88 337.029 296.66C334.693 299.632 334.691 299.626 336.005 293.213ZM170.689 45.4623C155.087 37.5396 131.019 29.0351 117.724 26.7471C113.063 25.9449 105.112 25.4976 100.055 25.753C89.0852 26.3069 89.5751 25.7333 107.173 17.4193C121.803 10.5072 134.006 6.44259 150.573 2.96407C169.209 -0.949013 204.239 -0.994936 222.578 2.86967C242.386 7.04378 265.711 15.7238 278.854 23.8121L282.761 26.216L273.798 25.7634C255.988 24.864 230.032 32.0593 202.166 45.6209C193.76 49.7114 186.448 52.9784 185.916 52.8808C185.383 52.7833 178.531 49.4449 170.689 45.4623Z" fill="white"/>
</svg>
