<svg width="56" height="43" viewBox="0 0 56 43" fill="none" xmlns="http://www.w3.org/2000/svg">
<path d="M47.4373 3.60124C43.8123 1.91887 39.9363 0.696201 35.8841 0C35.3864 0.892505 34.805 2.09294 34.4041 3.04789C30.0965 2.40529 25.8285 2.40529 21.6 3.04789C21.1992 2.09294 20.6046 0.892505 20.1025 0C16.0459 0.696201 12.1654 1.92337 8.54045 3.61015C1.22883 14.5699 -0.753226 25.2574 0.237806 35.7932C5.08725 39.3854 9.78695 41.5676 14.4073 42.9956C15.5481 41.4382 16.5656 39.7826 17.4421 38.0378C15.7728 37.4086 14.1739 36.6322 12.6632 35.7307C13.064 35.4362 13.456 35.1283 13.8348 34.8114C23.0491 39.0865 33.0608 39.0865 42.1651 34.8114C42.5483 35.1283 42.9402 35.4362 43.3366 35.7307C41.8215 36.6366 40.2182 37.413 38.5489 38.0423C39.4254 39.7826 40.4385 41.4427 41.5836 43C46.2085 41.572 50.9125 39.3899 55.762 35.7932C56.9248 23.5795 53.7756 12.9902 47.4373 3.60124ZM18.6974 29.3138C15.9314 29.3138 13.663 26.7523 13.663 23.6331C13.663 20.5138 15.8829 17.9479 18.6974 17.9479C21.512 17.9479 23.7803 20.5093 23.7319 23.6331C23.7362 26.7523 21.512 29.3138 18.6974 29.3138ZM37.3024 29.3138C34.5363 29.3138 32.2679 26.7523 32.2679 23.6331C32.2679 20.5138 34.4878 17.9479 37.3024 17.9479C40.1169 17.9479 42.3853 20.5093 42.3369 23.6331C42.3369 26.7523 40.1169 29.3138 37.3024 29.3138Z" fill="#A9A9A9"/>
</svg>
