<svg width="33" height="33" viewBox="0 0 33 33" fill="none" xmlns="http://www.w3.org/2000/svg">
<path fill-rule="evenodd" clip-rule="evenodd" d="M16.5 0C25.6127 0 33 7.41446 33 16.5606C33 25.0277 26.6688 32.0096 18.499 33V21.6214H22.9626L23.0937 20.905L23.8885 16.5607L18.499 16.5606V14.7709C18.499 13.4337 18.7603 12.508 19.3599 11.9165C19.5471 11.7319 19.7672 11.5798 20.0227 11.4579C20.5854 11.1896 21.3195 11.068 22.2499 11.068C22.565 11.068 22.8571 11.0709 23.1196 11.0766C23.2547 11.0796 23.3818 11.0833 23.5004 11.0878C23.7659 11.098 23.9878 11.1119 24.1561 11.1297V6.54212C23.8794 6.46496 23.4528 6.38782 22.9725 6.32152C22.7248 6.28733 22.4628 6.25602 22.1997 6.22909C21.6127 6.16898 21.0203 6.13065 20.5691 6.13065C18.5016 6.13065 16.8519 6.49806 15.5975 7.25458C13.7657 8.35928 12.7767 10.2937 12.5599 13.1254C12.5293 13.5256 12.514 13.9438 12.514 14.38V16.5606H9.11159V21.6214H12.514V32.6336C5.32719 30.844 0 24.3273 0 16.5606C0 7.41446 7.38732 0 16.5 0Z" fill="white"/>
</svg>
