<svg width="33" height="33" viewBox="0 0 33 33" fill="none" xmlns="http://www.w3.org/2000/svg">
<path d="M16.3819 2.95176C20.7561 2.95176 21.2742 2.96847 23.0018 3.04728C24.599 3.12018 25.4664 3.38699 26.0437 3.61134C26.7552 3.87395 27.3989 4.2927 27.9273 4.83679C28.4714 5.36521 28.8901 6.00885 29.1528 6.7204C29.3771 7.29765 29.644 8.16509 29.7168 9.7623C29.7957 11.4898 29.8124 12.0078 29.8124 16.3821C29.8124 20.7564 29.7957 21.2744 29.7168 23.002C29.6439 24.5992 29.377 25.4666 29.1528 26.0439C28.8803 26.7504 28.4628 27.392 27.9273 27.9275C27.3918 28.463 26.7502 28.8804 26.0437 29.153C25.4664 29.3773 24.599 29.6442 23.0018 29.717C21.2747 29.7959 20.7566 29.8126 16.3819 29.8126C12.0073 29.8126 11.4894 29.7959 9.7621 29.717C8.16489 29.6441 7.29752 29.3772 6.7202 29.153C6.00865 28.8903 5.36501 28.4716 4.8366 27.9275C4.29251 27.3991 3.87376 26.7554 3.61114 26.0439C3.3868 25.4666 3.11992 24.5992 3.04709 23.002C2.96827 21.2746 2.95156 20.7564 2.95156 16.3821C2.95156 12.0078 2.96827 11.4899 3.04709 9.7623C3.11998 8.16509 3.3868 7.29772 3.61114 6.7204C3.87379 6.00882 4.29258 5.36516 4.83673 4.83673C5.36515 4.29263 6.00879 3.87389 6.72033 3.61128C7.29758 3.38692 8.16497 3.12005 9.76225 3.04721C11.4897 2.96841 12.0076 2.95176 16.3819 2.95176ZM16.3821 0C11.933 0 11.3749 0.0188581 9.62787 0.098583C7.88417 0.178177 6.69335 0.455067 5.65133 0.860065C4.55825 1.27141 3.56805 1.91624 2.74978 2.74959C1.91624 3.5678 1.27124 4.55801 0.85974 5.65114C0.455067 6.69321 0.178177 7.88399 0.0989079 9.62776C0.0188582 11.3748 0 11.9328 0 16.382C0 20.8311 0.0188582 21.3891 0.0989079 23.1362C0.178502 24.8799 0.455392 26.0707 0.860384 27.1127C1.27173 28.2058 1.91656 29.196 2.74991 30.0142C3.56818 30.8476 4.55838 31.4924 5.65146 31.9038C6.69354 32.3088 7.88432 32.5857 9.62802 32.6653C11.3753 32.745 11.9332 32.7638 16.3822 32.7638C20.8312 32.7638 21.3894 32.745 23.1364 32.6653C24.8801 32.5857 26.071 32.3088 27.113 31.9038C28.2012 31.4829 29.1895 30.8393 30.0145 30.0143C30.8395 29.1892 31.4831 28.201 31.904 27.1127C32.309 26.0707 32.5859 24.8798 32.6655 23.1362C32.7452 21.3889 32.7641 20.831 32.7641 16.382C32.7641 11.9329 32.7452 11.3748 32.6655 9.62776C32.5859 7.88399 32.309 6.69321 31.904 5.65121C31.4927 4.55812 30.8479 3.56792 30.0145 2.74965C29.1962 1.91614 28.206 1.27117 27.1127 0.859736C26.0707 0.455067 24.8799 0.178177 23.1361 0.0989079C21.3891 0.0188581 20.8312 0 16.3821 0Z" fill="white"/>
<path d="M16.3819 7.96948C14.718 7.96948 13.0916 8.46281 11.7082 9.38718C10.3248 10.3115 9.24658 11.6254 8.60983 13.1626C7.97315 14.6997 7.80652 16.3912 8.13114 18.023C8.45576 19.6548 9.25693 21.1537 10.4334 22.3303C11.6099 23.5068 13.1089 24.3079 14.7407 24.6326C16.3725 24.9571 18.064 24.7905 19.6011 24.1539C21.1383 23.5171 22.4521 22.4389 23.3765 21.0555C24.3008 19.6721 24.7942 18.0456 24.7942 16.3818C24.7942 14.1508 23.9079 12.011 22.3303 10.4334C20.7527 8.85577 18.6129 7.96948 16.3819 7.96948ZM16.3819 21.8424C15.3018 21.8424 14.2461 21.5221 13.3481 20.9221C12.4501 20.3221 11.7502 19.4693 11.337 18.4714C10.9237 17.4737 10.8155 16.3758 11.0262 15.3165C11.237 14.2573 11.7571 13.2842 12.5207 12.5206C13.2844 11.7569 14.2574 11.2368 15.3166 11.0261C16.3759 10.8154 17.4738 10.9236 18.4717 11.3369C19.4694 11.7502 20.3222 12.4501 20.9223 13.3481C21.5223 14.2461 21.8425 15.3018 21.8425 16.3818C21.8425 17.8301 21.2672 19.219 20.2431 20.2431C19.219 21.2671 17.8301 21.8424 16.3819 21.8424Z" fill="white"/>
<path d="M25.1267 9.60297C26.2124 9.60297 27.0925 8.72288 27.0925 7.63719C27.0925 6.55151 26.2124 5.67139 25.1267 5.67139C24.041 5.67139 23.1609 6.55151 23.1609 7.63719C23.1609 8.72288 24.041 9.60297 25.1267 9.60297Z" fill="white"/>
</svg>
