<svg width="33" height="33" viewBox="0 0 33 33" fill="none" xmlns="http://www.w3.org/2000/svg">
<path fill-rule="evenodd" clip-rule="evenodd" d="M0 2.36391C0 1.05872 1.09178 0 2.43864 0H30.5614C31.9082 0 33 1.05872 33 2.36391V30.6361C33 31.9417 31.9082 33 30.5614 33H2.43864C1.09178 33 0 31.9417 0 30.6361V2.36391ZM10.0033 27.6244V12.7231H5.01896V27.6244H10.0033ZM7.51112 10.6885C9.24928 10.6885 10.3311 9.54432 10.3311 8.11428C10.2987 6.65212 9.24928 5.53961 7.54409 5.53961C5.83909 5.53961 4.72431 6.65212 4.72431 8.11428C4.72431 9.54432 5.80593 10.6885 7.47863 10.6885H7.51112ZM17.7456 27.6244H12.7612C12.7612 27.6244 12.8268 14.1213 12.7614 12.7231H17.7457V14.8328C17.7344 14.8501 17.7233 14.8672 17.7124 14.8841H17.7457V14.8328C18.4081 13.8174 19.5936 12.3734 22.2376 12.3734C25.5169 12.3734 27.9759 14.5032 27.9759 19.0802V27.6244H22.9921V19.6525C22.9921 17.6493 22.2706 16.2829 20.467 16.2829C19.09 16.2829 18.2699 17.2044 17.9096 18.0943C17.7779 18.4126 17.7456 18.8575 17.7456 19.3029V27.6244Z" fill="white"/>
</svg>
