<svg width="25" height="25" viewBox="0 0 25 25" fill="none" xmlns="http://www.w3.org/2000/svg">
<path d="M15.793 7.92291C15.2692 8.27212 13.6103 9.17007 13.3608 9.40703C13.1701 9.59142 12.9151 9.6945 12.6498 9.6945C12.3845 9.6945 12.1296 9.59142 11.9389 9.40703C11.6894 9.20748 10.0305 8.25965 9.50664 7.92291C8.98277 7.5862 8.94534 7.0499 9.60642 6.77553C10.5727 6.35571 11.615 6.13907 12.6686 6.13907C13.7221 6.13907 14.7644 6.35571 15.7307 6.77553C16.3418 7.03744 16.3668 7.52383 15.7307 7.89797M24.7362 16.9772C23.5899 14.3821 21.9889 12.0126 20.0089 9.98071C19.3765 9.32392 18.9215 8.51708 18.6868 7.63607C18.562 7.22452 18.4747 6.80047 18.3874 6.38892C18.2313 5.25599 17.9381 4.14621 17.5143 3.08399C17.1169 2.14952 16.4477 1.35609 15.5936 0.80677C14.7395 0.257441 13.7399 -0.0224231 12.7247 0.0035201C11.7007 -0.0340296 10.6882 0.229515 9.81245 0.761526C8.93673 1.29353 8.23629 2.07065 7.79783 2.99668C7.54015 3.52867 7.3475 4.08977 7.22407 4.66786C7.01204 5.61569 6.82494 6.60094 6.60042 7.56124C6.40701 8.38072 5.97258 9.12351 5.35312 9.69387C3.37257 11.6269 1.73597 13.8833 0.513591 16.3661C0.331275 16.7193 0.176967 17.0863 0.0520888 17.4636C-0.184898 18.2867 0.413808 18.8604 1.29939 18.7108C1.84821 18.5985 2.39702 18.4863 2.92089 18.3241C3.44475 18.162 3.63184 18.3241 3.75658 18.7606C4.12532 20.0506 4.79798 21.2335 5.71815 22.21C6.63832 23.1864 7.77918 23.9281 9.04514 24.3728C14.184 26.3184 20.1835 23.5498 21.5182 18.6609C21.6055 18.3241 21.7302 18.1994 22.1043 18.3241C22.6782 18.4987 23.2643 18.6235 23.8507 18.7606C23.9794 18.7982 24.1148 18.8065 24.2471 18.7849C24.3794 18.7633 24.5052 18.7124 24.6151 18.6358C24.7252 18.5593 24.8168 18.4591 24.883 18.3425C24.9493 18.226 24.9885 18.0962 24.998 17.9625C25.0128 17.6467 24.944 17.3327 24.7987 17.052" fill="white"/>
</svg>
