<svg width="33" height="25" viewBox="0 0 33 25" fill="none" xmlns="http://www.w3.org/2000/svg">
<path fill-rule="evenodd" clip-rule="evenodd" d="M2.47561 21.2791C-0.120445 20.5547 -0.561263 19.0593 0.625371 18.1977C1.72264 17.3988 3.58838 16.8023 3.58838 16.8023L11.2932 14.1163V17.1767L5.74838 19.1221C4.76786 19.4709 4.61775 19.9547 5.41479 20.2093C6.21184 20.464 7.65224 20.3919 8.63157 20.0477L11.2908 19.1012V21.8395C11.1228 21.8698 10.9334 21.8988 10.7606 21.9267C7.98594 22.3684 5.14288 22.1462 2.47561 21.2791ZM18.7311 21.5977L27.377 18.586C28.3588 18.2372 28.5089 17.7558 27.7118 17.5012C26.9148 17.2465 25.4744 17.3186 24.4951 17.664L18.7334 19.6477V16.486L19.067 16.3756C20.3688 15.9645 21.7108 15.6867 23.0713 15.5465C25.4124 15.2942 28.2789 15.5814 30.5283 16.414C33.0648 17.1977 33.3507 18.3523 32.7062 19.1477C32.0616 19.943 30.4818 20.5093 30.4818 20.5093L18.7334 24.636L18.7311 21.5977ZM19.7426 1.99651C24.2949 3.53023 25.8378 5.43953 25.8378 9.74186C25.8378 13.9337 23.2 15.5233 19.8498 13.936V6.1186C19.8498 5.20233 19.6782 4.35814 18.8014 4.1186C18.1294 3.90698 17.7124 4.51977 17.7124 5.43605V25L12.3368 23.3256V0C14.6231 0.416279 17.9531 1.39535 19.7426 1.99186V1.99651Z" fill="white"/>
</svg>
