<svg width="26" height="26" viewBox="0 0 26 26" fill="none" xmlns="http://www.w3.org/2000/svg">
<path d="M5.41417 0.0837237C2.89505 0.53414 0.868264 2.39857 0.229325 4.8496C-0.00111191 5.73469 -0.016823 6.25318 0.00936211 13.1192C0.0250752 19.4247 0.0303122 19.5713 0.135057 20.0586C0.716385 22.6822 2.58083 24.552 5.23086 25.1699C5.57651 25.2486 6.01643 25.2643 8.84977 25.28C11.7826 25.301 12.0863 25.2956 12.1649 25.2171C12.2435 25.1386 12.2487 24.1279 12.2487 12.6687C12.2487 4.174 12.233 0.172767 12.1963 0.0994407C12.144 0.00517227 12.0549 -6.47352e-05 8.98592 0.00517229C6.49302 0.0104113 5.7441 0.0261224 5.41417 0.0837237ZM10.1538 12.653V23.2637L8.02228 23.2374C6.05832 23.2165 5.84884 23.2059 5.45606 23.1065C3.76967 22.6719 2.51798 21.3731 2.16709 19.6815C2.05187 19.1524 2.05187 6.12224 2.16185 5.60376C2.47609 4.13209 3.49734 2.91182 4.87473 2.36192C5.56604 2.08435 5.8855 2.05292 8.12702 2.04768L10.1538 2.04244V12.653Z" fill="white"/>
<path d="M5.86447 5.24258C5.53453 5.30543 5.03175 5.55682 4.76466 5.79248C4.21474 6.26907 3.94241 6.94466 3.9843 7.74071C4.00526 8.15446 4.03143 8.26444 4.19904 8.59961C4.44518 9.10762 4.81703 9.47947 5.32503 9.73084C5.67593 9.90367 5.76497 9.92463 6.22061 9.94034C6.63435 9.95604 6.78098 9.94035 7.05855 9.84606C8.19504 9.46375 8.88111 8.3587 8.68733 7.22747C8.46213 5.88152 7.18425 4.98073 5.86447 5.24258Z" fill="white"/>
<path d="M14.7987 0.0366612C14.7778 0.0523723 14.7621 5.72951 14.7621 12.6531C14.7621 24.0755 14.7673 25.2328 14.8459 25.2643C14.9873 25.3167 19.0514 25.2958 19.5542 25.2434C21.6805 25.0024 23.5553 23.7089 24.5767 21.7868C24.7075 21.5406 24.8804 21.1269 24.9695 20.8703C25.2994 19.8857 25.2888 20.1476 25.2888 12.6217C25.2888 6.6146 25.2784 5.71903 25.2051 5.33672C24.6866 2.60813 22.6073 0.54991 19.8737 0.0785575C19.507 0.0157112 18.9414 0 17.1188 0C15.8619 0 14.8145 0.0157111 14.7987 0.0366612ZM20.392 11.4433C21.2091 11.658 21.8795 12.2812 22.1518 13.0773C22.3247 13.5696 22.3193 14.2924 22.1466 14.7428C21.8271 15.5702 21.1986 16.1515 20.392 16.3663C19.0829 16.7067 17.6897 15.9159 17.3074 14.6171C17.1922 14.219 17.1974 13.5487 17.3283 13.1402C17.7211 11.857 19.0829 11.1029 20.392 11.4433Z" fill="white"/>
</svg>
