<svg width="25" height="25" viewBox="0 0 25 25" fill="none" xmlns="http://www.w3.org/2000/svg">
<path d="M11.2534 24.9486C9.32773 24.7643 7.37804 24.0731 5.70322 22.9809C4.29975 22.0657 3.98282 21.6895 3.98282 20.9387C3.98282 19.4306 5.64193 16.7892 8.48058 13.778C10.0927 12.0678 12.3383 10.0633 12.5812 10.1175C13.0532 10.2231 16.8277 13.9028 18.2407 15.6349C20.475 18.3741 21.5023 20.6169 20.9804 21.6168C20.5837 22.3769 18.1222 23.8624 16.3138 24.4332C14.8234 24.9036 12.8659 25.1029 11.2534 24.9486ZM2.08727 19.3707C0.921017 17.5825 0.331787 15.8221 0.0473034 13.2758C-0.0466338 12.435 -0.0129716 11.9541 0.26061 10.2284C0.601591 8.07754 1.82714 5.58929 3.29974 4.05797C3.92694 3.40576 3.98296 3.38987 4.74747 3.64728C5.67587 3.95986 6.66734 4.64422 8.20498 6.03383L9.10208 6.84463L8.61217 7.44612C6.33807 10.2383 3.93741 14.1963 3.03267 16.6449C2.54082 17.9761 2.34243 19.3124 2.55406 19.8687C2.69695 20.2443 2.56571 20.1043 2.08727 19.3707ZM22.5586 19.6749C22.6739 19.1128 22.5281 18.0803 22.1866 17.0391C21.447 14.7841 18.9748 10.5891 16.7046 7.73687L15.9899 6.83899L16.7631 6.12949C17.7727 5.20305 18.4735 4.64831 19.2298 4.17722C19.8265 3.80547 20.6794 3.47638 21.046 3.47638C21.2719 3.47638 22.0676 4.30163 22.7099 5.20226C23.7047 6.59713 24.4366 8.28804 24.8073 10.0482C25.0469 11.1856 25.0668 13.6201 24.8459 14.7547C24.6646 15.6858 24.2817 16.8935 23.9082 17.7126C23.6284 18.3263 22.9324 19.5183 22.6274 19.9062C22.4706 20.1056 22.4704 20.1052 22.5586 19.6749ZM11.4597 3.05056C10.4122 2.51894 8.79633 1.94828 7.90373 1.79476C7.5908 1.74093 7.05699 1.71091 6.71747 1.72805C5.98099 1.76522 6.01388 1.72673 7.19536 1.16885C8.17759 0.705043 8.99687 0.432304 10.1091 0.198892C11.3603 -0.0636796 13.7122 -0.0667611 14.9434 0.192558C16.2733 0.472644 17.8393 1.05508 18.7217 1.59781L18.984 1.75912L18.3822 1.72875C17.1865 1.6684 15.4438 2.15121 13.573 3.06121C13.0086 3.33568 12.5177 3.5549 12.482 3.54835C12.4462 3.54181 11.9862 3.3178 11.4597 3.05056Z" fill="white"/>
</svg>
